<svg version="1.1" viewBox="0.0 0.0 591.2887139107612 361.4278215223097" fill="none" stroke="none" stroke-linecap="square" stroke-miterlimit="10" xmlns:xlink="http://www.w3.org/1999/xlink" xmlns="http://www.w3.org/2000/svg"><clipPath id="p.0"><path d="m0 0l591.2887 0l0 361.42783l-591.2887 0l0 -361.42783z" clip-rule="nonzero"/></clipPath><g clip-path="url(#p.0)"><path fill="#000000" fill-opacity="0.0" d="m0 0l591.2887 0l0 361.42783l-591.2887 0z" fill-rule="evenodd"/><path fill="#ffffff" d="m18.38845 288.659l0 0c0 -5.8998413 4.782776 -10.682617 10.682629 -10.682617l155.89459 0c2.8332062 0 5.5503693 1.1254883 7.5537567 3.1288757c2.0033875 2.0033875 3.1288757 4.7205505 3.1288757 7.5537415l0 42.729248c0 5.8998413 -4.782776 10.682617 -10.682632 10.682617l-155.89459 0c-5.8998528 0 -10.682629 -4.782776 -10.682629 -10.682617z" fill-rule="evenodd"/><path stroke="#000000" stroke-width="1.0" stroke-linejoin="round" stroke-linecap="butt" d="m18.38845 288.659l0 0c0 -5.8998413 4.782776 -10.682617 10.682629 -10.682617l155.89459 0c2.8332062 0 5.5503693 1.1254883 7.5537567 3.1288757c2.0033875 2.0033875 3.1288757 4.7205505 3.1288757 7.5537415l0 42.729248c0 5.8998413 -4.782776 10.682617 -10.682632 10.682617l-155.89459 0c-5.8998528 0 -10.682629 -4.782776 -10.682629 -10.682617z" fill-rule="evenodd"/><path fill="#000000" d="m53.358215 293.47488q0.59375 0 0.96875 -0.375q0.375 -0.375 0.375 -0.96875q0 -0.59375 -0.375 -0.953125q-0.375 -0.375 -0.96875 -0.375q-0.59375 0 -0.96875 0.375q-0.359375 0.359375 -0.359375 0.953125q0 0.59375 0.359375 0.96875q0.375 0.375 0.96875 0.375zm0 0.734375q-0.890625 0 -1.484375 -0.59375q-0.59375 -0.59375 -0.59375 -1.484375q0 -0.890625 0.59375 -1.484375q0.59375 -0.59375 1.484375 -0.59375q0.890625 0 1.484375 0.59375q0.59375 0.59375 0.59375 1.484375q0 0.890625 -0.59375 1.484375q-0.59375 0.59375 -1.484375 0.59375zm-2.515625 4.15625q2.671875 2.828125 4.0 5.203125l-1.625 1.109375q-1.5625 -2.75 -3.796875 -5.125l1.421875 -1.1875zm-3.5625 -3.1875l6.828125 0l0 1.640625l-6.828125 0l0 10.3125l-1.71875 0l0 -10.3125l-6.671875 0l0 -1.640625l6.671875 0l0 -4.15625l1.5625 0q0.8125 0.15625 0.15625 0.59375l0 3.5625zm-3.9375 4.078125q0.4375 0.375 -0.296875 0.53125q-1.109375 2.4375 -2.828125 5.109375l-1.625 -0.890625q1.859375 -2.671875 3.109375 -5.640625l1.640625 0.890625zm28.71875 -1.546875q-3.78125 6.078125 -11.71875 8.609375q-0.234375 0.890625 -0.75 0.078125l-1.03125 -1.640625q8.078125 -1.78125 12.171875 -8.390625l1.328125 1.34375zm-11.421875 2.0q-2.234375 -1.640625 -3.71875 -2.375l1.109375 -1.5625q1.859375 0.96875 3.796875 2.375l-1.1875 1.5625zm2.21875 -4.375q-2.0 -1.421875 -3.703125 -2.375l0.953125 -1.5625q2.015625 1.109375 3.796875 2.375l-1.046875 1.5625zm6.15625 -5.046875q1.265625 0.953125 2.53125 2.296875l-0.96875 0.96875q-1.328125 -1.484375 -2.515625 -2.375l0.953125 -0.890625zm-1.78125 1.25q1.265625 1.046875 2.53125 2.375l-0.96875 0.890625q-1.265625 -1.328125 -2.59375 -2.4375l1.03125 -0.828125zm13.8046875 6.984375l-7.421875 0l0 -1.640625l15.21875 0l0 1.640625l-6.078125 0l0 0.96875q0 4.671875 -3.34375 7.71875l-1.484375 -1.109375q3.109375 -2.453125 3.109375 -6.609375l0 -0.96875zm-4.75 -4.53125l0 -1.625l9.875 0l0 1.625l-9.875 0zm21.378906 13.4375l-1.484375 0l0 -6.90625q-1.625 1.265625 -4.890625 2.890625l-1.046875 -1.25q7.046875 -3.421875 9.65625 -7.5l1.25 0.96875q0.453125 0.359375 -0.296875 0.515625q-1.25 1.5625 -3.1875 3.1875l0 8.09375zm5.6445312 -12.546875l0 -1.625l11.203125 0l1.109375 -0.234375l0.828125 0.75q-0.296875 9.796875 -10.390625 12.625l-1.34375 -1.640625q9.28125 -2.078125 9.71875 -9.875l-11.125 0zm11.65625 -1.859375q-0.96875 -1.03125 -1.9375 -1.84375l0.890625 -0.890625q1.046875 0.8125 2.0 1.921875l-0.953125 0.8125zm2.671875 -0.21875q-1.1875 -1.328125 -2.234375 -2.21875l0.890625 -0.75q1.1875 0.890625 2.234375 2.15625l-0.890625 0.8125zm19.507812 6.3125l-0.21875 1.328125q-0.296875 1.78125 -1.921875 1.1875q-1.71875 -0.59375 -2.828125 -1.84375q-0.890625 1.109375 -2.890625 2.296875l-0.96875 -1.265625q1.859375 -0.96875 2.96875 -2.21875q-1.265625 -2.453125 -1.484375 -5.046875l-6.90625 0l0 3.484375q0 3.265625 -1.40625 4.96875l-1.328125 -0.890625q1.25 -1.5625 1.25 -3.9375l0 -4.8125l8.3125 0l-0.0625 -1.9375l1.40625 0q0.671875 0.078125 0.078125 0.453125l0.0625 1.484375l2.234375 0q-0.515625 -0.375 -1.40625 -0.890625l1.109375 -0.890625q1.109375 0.515625 1.78125 1.03125l-0.890625 0.75l2.515625 0l0 1.1875l-5.265625 0q0.296875 2.21875 1.109375 3.921875q0.828125 -1.25 1.421875 -3.03125l1.328125 0.59375q0.515625 0.359375 -0.140625 0.515625q-0.671875 1.78125 -1.78125 3.1875q0.8125 0.890625 1.703125 1.265625q0.515625 0.21875 0.59375 -0.515625l0.078125 -0.828125l1.546875 0.453125zm-13.421875 3.5625q0.359375 0.21875 -0.15625 0.515625q-0.515625 2.234375 -1.265625 4.015625l-1.546875 -0.8125q0.8125 -1.5625 1.484375 -4.09375l1.484375 0.375zm11.9375 3.9375q-1.25 -2.015625 -2.59375 -3.34375l1.109375 -0.890625q1.484375 1.265625 2.828125 3.046875l-1.34375 1.1875zm-7.421875 -4.90625q1.265625 1.109375 2.3125 2.53125l-1.34375 0.953125q-0.96875 -1.40625 -2.15625 -2.59375l1.1875 -0.890625zm0.890625 -4.96875l0 3.265625l-4.0 0l0 0.59375l-1.265625 0l0 -3.859375l5.265625 0zm-5.5625 -2.078125l5.796875 0l0 1.1875l-5.796875 0l0 -1.1875zm1.5625 4.453125l2.75 0l0 -1.484375l-2.75 0l0 1.484375zm0.8125 2.75q0.59375 0.0625 0.078125 0.4375l0 3.046875q0 0.59375 0.515625 0.59375l4.53125 0q0.59375 0 0.671875 -0.59375l0.140625 -0.96875l1.484375 0.15625l-0.296875 1.5625q-0.21875 1.25 -1.703125 1.25l-5.5 0q-1.328125 0 -1.328125 -1.25l0 -4.234375l1.40625 0zm18.40625 -8.25q0.515625 0.75 0.8125 2.15625l-1.25 0.59375q-0.296875 -1.328125 -0.671875 -2.078125l1.109375 -0.671875zm-3.34375 1.34375q-0.140625 2.59375 -0.65625 4.96875l-1.484375 -0.296875q0.59375 -2.890625 0.65625 -5.34375l1.421875 0.21875q0.65625 0.15625 0.0625 0.453125zm2.015625 12.6875l-1.484375 0l0 -17.140625l1.40625 0q0.734375 0.140625 0.078125 0.59375l0 16.546875zm12.609375 -15.4375l0 1.1875l-4.53125 0l0 0.96875l3.640625 0l0 1.1875l-3.640625 0l0 1.03125l5.046875 0l0 1.1875l-11.34375 0l0 -1.1875l4.8125 0l0 -1.03125l-3.625 0l0 -1.1875l3.625 0l0 -0.96875l-4.453125 0l0 -1.1875l4.453125 0l0 -1.78125l1.421875 0q0.59375 0.078125 0.0625 0.453125l0 1.328125l4.53125 0zm-1.109375 6.53125l0 7.796875q0 0.96875 -1.046875 0.96875l-1.25 0l-0.453125 -1.40625l0.96875 0q0.296875 0 0.296875 -0.3125l0 -1.40625l-5.125 0l0 3.34375l-1.484375 0l0 -8.984375l8.09375 0zm-1.484375 1.1875l-5.125 0l0 1.046875l5.125 0l0 -1.046875zm0 2.234375l-5.125 0l0 1.03125l5.125 0l0 -1.03125zm14.328125 -6.6875q-1.265625 7.421875 -3.046875 9.203125q-0.96875 0.96875 -2.0 0.96875q-1.1875 0 -1.859375 -0.671875q-1.78125 -1.78125 -1.78125 -4.453125q0 -3.265625 2.296875 -5.5625q2.53125 -2.53125 6.15625 -2.53125q3.265625 0 5.125 1.859375q2.078125 2.078125 2.078125 4.90625q0 3.03125 -1.921875 4.96875q-1.265625 1.265625 -3.859375 2.453125l-1.5625 -1.5625q2.59375 -0.8125 4.078125 -2.296875q1.40625 -1.421875 1.40625 -3.421875q0 -2.375 -1.546875 -3.9375q-1.5625 -1.546875 -4.90625 -1.40625l1.34375 0.671875q0.890625 0.375 0 0.8125zm-1.71875 -1.40625q-1.921875 0.4375 -3.328125 1.859375q-1.9375 1.921875 -1.9375 4.75q0 1.703125 1.109375 2.8125q0.234375 0.21875 0.671875 0.21875q0.453125 0 0.96875 -0.515625q1.703125 -1.703125 2.515625 -9.125z" fill-rule="nonzero"/><path fill="#000000" d="m90.01837 315.553l0.59375 0.4375q1.1875 -1.859375 1.9375 -3.5625l1.40625 0.8125q0.375 0.296875 -0.21875 0.375q-0.890625 1.5625 -2.078125 3.1875l1.03125 0.890625q1.046875 -1.25 2.078125 -3.03125l1.265625 0.8125q0.453125 0.296875 -0.140625 0.375q-1.78125 2.375 -3.5625 4.375l2.4375 -0.15625l-0.65625 -1.1875l1.25 -0.515625q0.96875 1.265625 1.71875 3.421875l-1.484375 0.59375l-0.375 -1.125l-1.640625 0.15625l0 8.171875l-1.484375 0l0 -8.03125l-2.515625 0.078125q-0.078125 0.515625 -0.375 0.21875l-0.375 -1.625l1.78125 0l1.1875 -1.34375q-1.328125 -1.03125 -2.671875 -2.078125l0.890625 -1.25zm6.6875 4.453125q2.375 -0.890625 3.265625 -1.640625q-1.265625 -1.328125 -2.15625 -3.40625l-1.03125 0l0 -1.421875l6.75 0l0.21875 -0.21875l1.1875 0.96875l-0.375 0.296875q-0.65625 1.921875 -2.375 3.703125q1.125 0.75 4.09375 1.484375l-0.53125 1.640625q-3.328125 -1.046875 -4.59375 -2.15625q-1.5625 1.34375 -3.78125 2.15625l-0.671875 -1.40625zm-0.515625 8.984375l0 -1.421875l4.078125 0l0 -3.1875l-3.046875 0l0 -1.40625l3.046875 0l0 -2.078125l1.40625 0q0.59375 0.0625 0.078125 0.4375l0 1.640625l3.265625 0l0 1.40625l-3.265625 0l0 3.1875l3.9375 0l0 1.421875l-9.5 0zm3.109375 -14.03125q0.671875 1.546875 1.78125 2.515625q0.96875 -1.03125 1.703125 -2.515625l-3.484375 0zm-8.09375 8.75q-0.0625 1.859375 -0.734375 4.234375l-1.484375 -0.515625q0.59375 -2.234375 0.734375 -4.453125l1.640625 0.359375q0.21875 0.296875 -0.15625 0.375zm4.3125 -0.8125q0.734375 1.328125 1.03125 3.40625l-1.484375 0.375q-0.296875 -2.078125 -0.890625 -3.40625l1.34375 -0.375zm27.15625 -4.828125l-2.0 0l0 1.40625l3.421875 0l0 4.90625l-1.265625 0l0 -0.59375l-2.0 0q1.328125 2.671875 4.375 4.15625l-0.890625 1.40625q-2.96875 -1.703125 -4.015625 -4.078125q-1.03125 3.046875 -4.453125 4.3125l-0.65625 -1.34375q3.625 -1.34375 4.15625 -4.453125l-2.015625 0l0 0.8125l-1.25 0l0 -5.125l3.328125 0l0 -1.40625l-2.0 0l0 -1.03125q-0.734375 0.890625 -1.859375 1.484375l-0.8125 -1.265625q2.59375 -1.40625 4.234375 -4.671875l1.5625 0.21875q0.21875 0.296875 -0.15625 0.375q1.78125 2.296875 4.828125 3.625l-0.75 1.34375q-0.8125 -0.296875 -1.78125 -1.046875l0 0.96875zm-10.09375 8.6875q-0.296875 -1.40625 -0.59375 -2.375l0.828125 -0.15625q0.4375 0.96875 0.65625 2.234375l-0.890625 0.296875zm-4.890625 1.109375q0.59375 -2.15625 0.59375 -3.5625l0.96875 0.15625q-0.15625 2.375 -0.53125 3.78125l-1.03125 -0.375zm2.0 -0.375q0 -1.546875 -0.140625 -3.03125l0.8125 -0.078125q0.21875 1.40625 0.21875 2.96875l-0.890625 0.140625zm1.640625 0.609375l1.625 0q0.453125 0 0.59375 -0.453125q0.21875 -0.59375 0.21875 -1.40625l0.078125 -2.90625l-5.1875 0l0 -10.015625l6.53125 0l0 1.1875l-2.375 0l0 1.640625l1.78125 0l0 1.1875l-1.78125 0l0 1.78125l1.921875 0l0 1.1875l-1.921875 0l0 1.84375l2.375 0l-0.15625 4.234375q-0.078125 1.71875 -0.375 2.3125q-0.359375 0.8125 -1.25 0.8125l-1.9375 0l-0.140625 -1.40625zm9.34375 -7.4375l0 1.9375l2.15625 0l0 -1.9375l-2.15625 0zm-1.265625 0l-2.078125 0l0 1.9375l2.078125 0l0 -1.9375zm-7.78125 3.71875q0.515625 1.40625 0.515625 2.59375l-0.890625 0.21875q-0.15625 -1.703125 -0.453125 -2.734375l0.828125 -0.078125zm-0.078125 -4.078125l-1.640625 0l0 1.84375l1.640625 0l0 -1.84375zm0 -2.96875l-1.640625 0l0 1.78125l1.640625 0l0 -1.78125zm0 -2.828125l-1.640625 0l0 1.640625l1.640625 0l0 -1.640625zm10.765625 2.375q-1.484375 -1.03125 -2.671875 -2.75q-0.890625 1.640625 -2.078125 2.75l4.75 0z" fill-rule="nonzero"/><path fill="#ffffff" d="m117.06562 198.83354l0 0c0 -5.8998413 4.7827682 -10.682617 10.682625 -10.682617l196.14656 0c2.833191 0 5.5503845 1.1254883 7.5537415 3.1288605c2.0033875 2.0033875 3.1288757 4.7205505 3.1288757 7.5537567l0 42.729233c0 5.8998566 -4.782776 10.682632 -10.682617 10.682632l-196.14656 0c-5.8998566 0 -10.682625 -4.782776 -10.682625 -10.682632z" fill-rule="evenodd"/><path stroke="#000000" stroke-width="1.0" stroke-linejoin="round" stroke-linecap="butt" d="m117.06562 198.83354l0 0c0 -5.8998413 4.7827682 -10.682617 10.682625 -10.682617l196.14656 0c2.833191 0 5.5503845 1.1254883 7.5537415 3.1288605c2.0033875 2.0033875 3.1288757 4.7205505 3.1288757 7.5537567l0 42.729233c0 5.8998566 -4.782776 10.682632 -10.682617 10.682632l-196.14656 0c-5.8998566 0 -10.682625 -4.782776 -10.682625 -10.682632z" fill-rule="evenodd"/><path fill="#000000" d="m144.96019 216.41504q3.046875 -1.640625 3.046875 -5.5625l0 -8.546875l1.5625 0.296875l4.0 -1.25l1.109375 1.484375q0.15625 0.4375 -0.515625 0.140625l-4.671875 0.890625l0 3.1875l5.859375 0l0 1.421875l-2.21875 0l0 9.28125l-1.484375 0l0 -9.28125l-2.15625 0l0 2.8125q0 4.375 -3.71875 6.53125l-0.8125 -1.40625zm-1.40625 1.40625l-1.484375 0l0 -4.453125q-1.1875 1.9375 -2.59375 3.046875l-1.125 -1.34375q2.078125 -1.484375 3.5 -3.703125l-3.125 0l0 -1.40625l3.34375 0l0 -1.640625l-3.78125 0l0 -1.40625l5.1875 0l0.8125 -2.671875l-5.484375 0l0 -1.40625l3.265625 0l0 -2.078125l1.40625 0q0.59375 0.0625 0.078125 0.4375l0 1.640625l3.265625 0l0 1.40625l-0.96875 0l-1.03125 2.671875l2.375 0l0 1.40625l-3.640625 0l0 1.640625l3.265625 0l0 1.40625l-3.265625 0l0 0.671875q1.03125 0.296875 2.890625 1.546875l-0.890625 1.484375q-1.03125 -1.03125 -2.0 -1.625l0 4.375zm-2.96875 -11.0625q-0.296875 -1.03125 -0.8125 -2.0l1.40625 -0.4375q0.59375 0.953125 0.890625 2.0l-1.484375 0.4375zm31.90625 8.390625l0 1.640625l-3.265625 0q-2.8125 0 -5.34375 -1.34375l0.671875 -1.328125q1.9375 1.03125 4.671875 1.03125l3.265625 0zm-10.234375 -8.6875q-1.109375 6.609375 -2.75 10.46875l-1.625 -0.515625q2.0 -4.671875 2.8125 -9.796875q-1.78125 0.140625 -3.1875 0.140625l-0.296875 -1.484375q2.078125 0 3.703125 -0.140625q0.296875 -2.296875 0.53125 -4.015625l1.484375 0.296875q0.8125 0.234375 0.140625 0.59375q-0.21875 0.890625 -0.59375 2.96875q1.703125 -0.21875 3.125 -0.59375l0.296875 1.484375q-1.9375 0.375 -3.640625 0.59375zm9.875 2.53125q-4.3125 0.140625 -6.765625 1.1875l-0.4375 -1.484375q3.1875 -1.265625 6.90625 -1.265625l0.296875 1.5625zm13.71875 -1.265625q0.828125 0.15625 0.15625 0.59375l0 4.3125q1.859375 0.59375 3.859375 1.625l-0.890625 1.40625q-1.640625 -0.953125 -2.96875 -1.40625q-0.21875 1.5625 -0.96875 2.3125q-0.890625 0.890625 -2.453125 0.890625q-2.078125 0 -2.890625 -0.828125q-0.734375 -0.734375 -0.734375 -1.921875q0 -0.96875 0.734375 -1.71875q0.96875 -0.953125 2.828125 -0.953125q1.25 0 2.0 0.21875l0 -4.53125l1.328125 0zm-7.9375 -1.78125q-1.1875 0.15625 -2.96875 0.15625l-0.21875 -1.5625q1.859375 0 3.703125 -0.15625q0.375 -1.328125 0.890625 -3.5625l1.34375 0.453125q0.734375 0.296875 0 0.59375l-0.671875 2.375q1.265625 -0.15625 2.59375 -0.515625l0.375 1.546875q-2.078125 0.453125 -3.40625 0.53125q-1.1875 3.78125 -3.5 8.234375l-1.484375 -0.75q2.3125 -4.078125 3.34375 -7.34375zm7.125 -2.21875q2.078125 0.65625 4.96875 1.78125l-0.65625 1.546875q-3.125 -1.328125 -4.90625 -1.84375l0.59375 -1.484375zm-0.515625 9.9375q-0.890625 -0.296875 -2.0 -0.296875q-1.1875 0 -1.640625 0.453125q-0.375 0.359375 -0.375 0.890625q0 0.515625 0.296875 0.8125q0.453125 0.4375 1.5625 0.4375q1.046875 0 1.484375 -0.4375q0.671875 -0.671875 0.671875 -1.859375zm18.925781 0.375l1.5625 0.375l-0.15625 1.546875q-0.140625 1.421875 -1.625 1.421875l-5.5 0q-1.40625 0 -1.40625 -1.484375l0 -4.75l1.40625 0q0.59375 0.0625 0.078125 0.4375l0 3.78125q0 0.59375 0.515625 0.59375l4.3125 0q0.59375 0 0.65625 -0.515625l0.15625 -1.40625zm2.15625 -2.75q1.484375 1.640625 3.1875 4.15625l-1.484375 1.046875q-1.5625 -2.75 -2.96875 -4.390625l1.265625 -0.8125zm-9.875 -6.453125l3.9375 0l0 -2.234375l-3.9375 0l0 2.234375zm9.34375 0l0 -2.234375l-3.921875 0l0 2.234375l3.921875 0zm0 5.1875l0 -0.59375l-9.34375 0l0 0.828125l-1.484375 0l0 -8.84375l12.3125 0l0 8.609375l-1.484375 0zm-3.921875 -1.78125l3.921875 0l0 -2.21875l-3.921875 0l0 2.21875zm-5.421875 0l3.9375 0l0 -2.21875l-3.9375 0l0 2.21875zm5.046875 5.71875q-0.75 -1.703125 -1.78125 -3.046875l1.265625 -0.8125q1.25 1.40625 2.0 2.96875l-1.484375 0.890625zm-5.5625 -1.328125q-0.59375 2.375 -1.78125 4.375l-1.421875 -1.046875q1.125 -1.703125 1.78125 -4.21875l1.421875 0.4375q0.59375 0.15625 0 0.453125zm15.578125 -0.890625q3.046875 -1.125 5.34375 -2.453125l0.15625 -0.375l0.4375 0q1.109375 -0.734375 2.15625 -1.5625l-7.9375 0l0 -1.40625l6.75 0l0 -1.78125l-4.96875 0l0 -1.40625l4.96875 0l0 -2.234375l1.40625 0q0.890625 0.078125 0.078125 0.53125l0 1.703125l3.703125 0l0 0.96875q0.453125 -0.453125 1.484375 -1.9375l1.265625 1.046875q0.375 0.4375 -0.375 0.359375q-1.328125 1.484375 -2.734375 2.75l5.40625 0l0 1.40625l-7.046875 0q-1.1875 0.96875 -2.453125 1.78125q4.828125 -0.515625 6.3125 -0.953125l0.8125 1.328125q0.671875 0.890625 -0.4375 0.375q-3.78125 0.296875 -7.578125 0.4375l-0.296875 1.1875l8.46875 0l-0.59375 3.34375q-0.515625 3.125 -2.296875 2.90625l-2.75 -0.375l-0.078125 -1.640625l2.296875 0.375q1.046875 0.15625 1.265625 -1.34375l0.296875 -1.84375l-6.96875 0q-0.078125 0.515625 -0.890625 2.375l-1.484375 -0.53125q0.8125 -1.78125 1.40625 -4.0q-1.484375 1.03125 -4.453125 2.296875l-0.671875 -1.328125zm9.875 -5.796875q1.484375 -1.40625 1.859375 -1.78125l-3.34375 0l0 1.78125l1.484375 0zm14.546875 1.703125l0 3.203125l-3.1875 0l0 -3.203125l3.1875 0zm9.875 -5.1875q-2.3125 2.8125 -4.234375 3.9375l-0.890625 -1.34375q2.078125 -1.1875 4.15625 -3.9375l1.109375 0.96875q0.375 0.453125 -0.140625 0.375zm-1.046875 15.21875l-1.484375 0l0 -7.875q-0.734375 0.8125 -2.21875 1.78125l-0.96875 -1.484375q3.1875 -1.921875 5.421875 -5.421875l1.1875 0.96875q0.359375 0.453125 -0.15625 0.375q-0.890625 1.1875 -1.78125 2.296875l0 9.359375zm10.843765 -15.59375l0 1.40625l-8.01564 0l0 -1.40625l8.01564 0zm-8.843765 6.15625l0 -1.40625l10.32814 0l0 1.40625l-3.125 0l0 7.578125q0 1.5625 -1.265625 1.5625l-2.0 0l-0.296875 -1.421875l1.78125 0q0.296875 0 0.296875 -0.296875l0 -7.421875l-5.7187653 0zm20.125015 8.25q0.734375 -0.375 1.546875 -1.125l-8.3125 1.5625q-0.0625 0.53125 -0.359375 0.234375l-0.453125 -1.640625l4.3125 -0.515625l0 -1.34375l-3.5 0l0 -1.1875l3.5 0l0 -1.109375l-1.71875 0l-1.625 0l0 -5.265625l3.34375 0l0 -1.046875l-4.3125 0l0 -1.1875l4.3125 0l0 -0.890625q-1.859375 0.078125 -3.71875 0.15625l-0.21875 -1.265625q3.640625 0 7.796875 -0.8125l0.65625 1.25q0.234375 0.453125 -0.4375 0.15625q-1.5625 0.21875 -2.828125 0.375l0 1.03125l4.09375 0l0 1.1875l-4.09375 0l0 1.046875l3.421875 0l0 5.265625l-3.421875 0l0 1.109375l3.71875 0l0 1.1875l-3.71875 0l0 1.109375l3.71875 -0.59375l0 1.046875q2.15625 -1.9375 2.21875 -5.859375l0.078125 -2.90625l-1.78125 0l0 -1.40625l1.78125 0l0 -3.78125l1.40625 0q0.59375 0.078125 0.078125 0.4375l0 3.34375l3.265625 0l-0.140625 9.796875q-0.078125 2.671875 -1.9375 2.671875l-2.0 0l-0.21875 -1.40625l1.703125 0q0.890625 0 0.96875 -1.5625l0.21875 -8.09375l-1.859375 0l-0.078125 3.5q-0.0625 5.109375 -4.515625 7.9375l-0.890625 -1.40625zm-2.015625 -7.359375l0 1.34375l2.15625 0l0 -1.34375l-2.15625 0zm0 -2.140625l0 1.25l2.15625 0l0 -1.25l-2.15625 0zm-3.328125 2.140625l0 1.34375l2.078125 0l0 -1.34375l-2.078125 0zm0 -2.140625l0 1.25l2.078125 0l0 -1.25l-2.078125 0zm31.984375 6.890625q-4.15625 -3.03125 -7.640625 -6.15625q-0.453125 -0.375 -0.890625 -0.375q-0.453125 0 -0.75 0.296875q-3.40625 3.046875 -4.671875 4.09375l-1.484375 -1.484375q2.0 -1.1875 5.265625 -4.234375q0.75 -0.671875 1.484375 -0.671875q0.96875 0 1.78125 0.671875q5.640625 4.671875 8.609375 6.15625l-1.703125 1.703125zm12.84375 -8.234375q-1.265625 7.421875 -3.046875 9.203125q-0.96875 0.96875 -2.0 0.96875q-1.1875 0 -1.859375 -0.671875q-1.78125 -1.78125 -1.78125 -4.453125q0 -3.265625 2.296875 -5.5625q2.53125 -2.53125 6.15625 -2.53125q3.265625 0 5.125 1.859375q2.078125 2.078125 2.078125 4.90625q0 3.03125 -1.921875 4.96875q-1.265625 1.265625 -3.859375 2.453125l-1.5625 -1.5625q2.59375 -0.8125 4.078125 -2.296875q1.40625 -1.421875 1.40625 -3.421875q0 -2.375 -1.546875 -3.9375q-1.5625 -1.546875 -4.90625 -1.40625l1.34375 0.671875q0.890625 0.375 0 0.8125zm-1.71875 -1.40625q-1.921875 0.4375 -3.328125 1.859375q-1.9375 1.921875 -1.9375 4.75q0 1.703125 1.109375 2.8125q0.234375 0.21875 0.671875 0.21875q0.453125 0 0.96875 -0.515625q1.703125 -1.703125 2.515625 -9.125z" fill-rule="nonzero"/><path fill="#000000" d="m176.40602 229.13379q-0.734375 4.453125 -1.78125 8.171875q0.8125 -0.078125 3.5625 -0.53125q-0.078125 -0.8125 -1.40625 -3.703125l1.40625 -0.515625q1.703125 3.03125 2.453125 6.15625l-1.703125 0.59375l-0.296875 -1.34375q-2.90625 0.53125 -5.875 1.125q-0.21875 0.375 -0.4375 0.078125l-0.375 -1.71875l1.109375 -0.078125q1.265625 -4.453125 1.71875 -9.046875l1.625 0.296875q0.453125 0.21875 0 0.515625zm-8.828125 2.15625l1.859375 -0.671875l0.296875 1.34375l-2.15625 0.8125l0 5.796875q0 1.25 -1.265625 1.25l-1.40625 0l-0.15625 -1.625l1.046875 0q0.296875 0 0.296875 -0.296875l0 -4.6875l-1.5625 0.53125q-0.078125 0.515625 -0.375 0.21875l-0.515625 -1.703125l2.453125 -0.59375l0 -3.796875l-2.078125 0l0 -1.40625l2.078125 0l0 -3.5625l1.40625 0q0.59375 0.078125 0.078125 0.453125l0 3.109375l2.21875 0l0 1.40625l-2.21875 0l0 3.421875zm4.375 -4.078125l0 5.859375q0 4.15625 -2.59375 6.75l-0.96875 -1.328125q2.078125 -1.9375 2.078125 -5.640625l0 -7.0625l3.9375 0l0 -2.96875l1.40625 0q0.59375 0.078125 0.078125 0.453125l0 2.515625l4.453125 0l0 1.421875l-8.390625 0zm23.375 9.859375l0.234375 1.34375l-5.046875 1.1875q-0.15625 0.515625 -0.296875 0.21875l-0.453125 -1.703125l1.109375 -0.15625l0 -5.40625l-1.328125 0l0 -1.421875l1.328125 0l0 -7.71875l7.578125 0l0 1.421875l-6.09375 0l0 1.109375l5.34375 0l0 1.40625l-5.34375 0l0 1.1875l5.34375 0l0 1.40625l-5.34375 0l0 1.1875l7.203125 0l0 1.421875l-4.828125 0q0.234375 1.03125 0.890625 2.0l2.015625 -1.703125l1.109375 1.109375q0.078125 0.375 -0.375 0.21875l-1.921875 1.34375q1.40625 1.484375 3.484375 2.4375l-0.890625 1.640625q-4.75 -2.671875 -5.640625 -7.046875l-1.046875 0l0 5.1875l2.96875 -0.671875zm-10.828125 2.390625l0 -1.421875l1.484375 0q0.8125 0 0.890625 -0.734375l0.375 -4.09375l-2.609375 0l-0.0625 0.671875l-1.421875 -0.296875l0.75 -6.15625l3.265625 0l0 -2.59375l-4.015625 0l0 -1.421875l5.5 0l0 5.9375l-1.484375 0l0 -0.515625l-1.9375 0l-0.359375 2.96875l4.0 0l-0.59375 6.15625q-0.140625 1.5 -1.78125 1.5l-2.0 0z" fill-rule="nonzero"/><path fill="#000000" d="m210.29245 242.04004q-1.359375 -1.703125 -2.296875 -4.0q-0.9375 -2.296875 -0.9375 -4.765625q0 -2.15625 0.703125 -4.140625q0.828125 -2.3125 2.53125 -4.59375l1.171875 0q-1.09375 1.890625 -1.453125 2.703125q-0.546875 1.25 -0.875 2.625q-0.390625 1.703125 -0.390625 3.421875q0 4.375 2.71875 8.75l-1.171875 0zm3.212677 -3.921875l0 -13.359375l5.015625 0q1.53125 0 2.453125 0.40625q0.921875 0.40625 1.4375 1.25q0.53125 0.84375 0.53125 1.765625q0 0.859375 -0.46875 1.625q-0.453125 0.75 -1.390625 1.203125q1.203125 0.359375 1.859375 1.21875q0.65625 0.859375 0.65625 2.015625q0 0.9375 -0.40625 1.75q-0.390625 0.796875 -0.984375 1.234375q-0.578125 0.4375 -1.453125 0.671875q-0.875 0.21875 -2.15625 0.21875l-5.09375 0zm1.78125 -7.75l2.875 0q1.1875 0 1.6875 -0.140625q0.671875 -0.203125 1.015625 -0.671875q0.34375 -0.46875 0.34375 -1.171875q0 -0.65625 -0.328125 -1.15625q-0.3125 -0.515625 -0.90625 -0.703125q-0.59375 -0.1875 -2.03125 -0.1875l-2.65625 0l0 4.03125zm0 6.171875l3.3125 0q0.859375 0 1.203125 -0.0625q0.609375 -0.109375 1.015625 -0.359375q0.421875 -0.265625 0.6875 -0.75q0.265625 -0.484375 0.265625 -1.125q0 -0.75 -0.390625 -1.296875q-0.375 -0.546875 -1.0625 -0.765625q-0.671875 -0.234375 -1.953125 -0.234375l-3.078125 0l0 4.59375zm10.521698 1.578125l0 -9.671875l1.46875 0l0 1.46875q0.5625 -1.03125 1.03125 -1.359375q0.484375 -0.328125 1.0625 -0.328125q0.828125 0 1.6875 0.53125l-0.5625 1.515625q-0.609375 -0.359375 -1.203125 -0.359375q-0.546875 0 -0.96875 0.328125q-0.421875 0.328125 -0.609375 0.890625q-0.28125 0.875 -0.28125 1.921875l0 5.0625l-1.625 0zm5.618927 -4.84375q0 -2.6875 1.484375 -3.96875q1.25 -1.078125 3.046875 -1.078125q2.0 0 3.265625 1.3125q1.265625 1.296875 1.265625 3.609375q0 1.859375 -0.5625 2.9375q-0.5625 1.0625 -1.640625 1.65625q-1.0625 0.59375 -2.328125 0.59375q-2.03125 0 -3.28125 -1.296875q-1.25 -1.3125 -1.25 -3.765625zm1.6875 0q0 1.859375 0.796875 2.796875q0.8125 0.921875 2.046875 0.921875q1.21875 0 2.03125 -0.921875q0.8125 -0.9375 0.8125 -2.84375q0 -1.796875 -0.8125 -2.71875q-0.8125 -0.921875 -2.03125 -0.921875q-1.234375 0 -2.046875 0.921875q-0.796875 0.90625 -0.796875 2.765625zm15.610107 3.65625q-0.92189026 0.765625 -1.7656403 1.09375q-0.828125 0.3125 -1.796875 0.3125q-1.59375 0 -2.453125 -0.78125q-0.859375 -0.78125 -0.859375 -1.984375q0 -0.71875 0.328125 -1.296875q0.328125 -0.59375 0.84375 -0.9375q0.53125 -0.359375 1.1875 -0.546875q0.46875 -0.125 1.453125 -0.25q1.984375 -0.234375 2.9218903 -0.5625q0.015625 -0.34375 0.015625 -0.421875q0 -1.0 -0.46876526 -1.421875q-0.625 -0.546875 -1.875 -0.546875q-1.15625 0 -1.703125 0.40625q-0.546875 0.40625 -0.8125 1.421875l-1.609375 -0.21875q0.21875 -1.015625 0.71875 -1.640625q0.5 -0.640625 1.453125 -0.984375q0.953125 -0.34375 2.1875 -0.34375q1.25 0 2.0156403 0.296875q0.78125 0.28125 1.140625 0.734375q0.375 0.4375 0.515625 1.109375q0.078125 0.421875 0.078125 1.515625l0 2.1875q0 2.28125 0.109375 2.890625q0.109375 0.59375 0.40625 1.15625l-1.703125 0q-0.265625 -0.515625 -0.328125 -1.1875zm-0.140625 -3.671875q-0.89064026 0.375 -2.6718903 0.625q-1.015625 0.140625 -1.4375 0.328125q-0.421875 0.1875 -0.65625 0.53125q-0.21875 0.34375 -0.21875 0.78125q0 0.65625 0.5 1.09375q0.5 0.4375 1.453125 0.4375q0.9375 0 1.671875 -0.40625q0.75 -0.421875 1.0937653 -1.140625q0.265625 -0.5625 0.265625 -1.640625l0 -0.609375zm10.469452 4.859375l0 -1.21875q-0.90625 1.4375 -2.703125 1.4375q-1.15625 0 -2.125 -0.640625q-0.96875 -0.640625 -1.5 -1.78125q-0.53125 -1.140625 -0.53125 -2.625q0 -1.453125 0.484375 -2.625q0.484375 -1.1875 1.4375 -1.8125q0.96875 -0.625 2.171875 -0.625q0.875 0 1.546875 0.375q0.6875 0.359375 1.109375 0.953125l0 -4.796875l1.640625 0l0 13.359375l-1.53125 0zm-5.171875 -4.828125q0 1.859375 0.78125 2.78125q0.78125 0.921875 1.84375 0.921875q1.078125 0 1.828125 -0.875q0.75 -0.890625 0.75 -2.6875q0 -1.984375 -0.765625 -2.90625q-0.765625 -0.9375 -1.890625 -0.9375q-1.078125 0 -1.8125 0.890625q-0.734375 0.890625 -0.734375 2.8125zm15.906982 1.71875l1.6875 0.203125q-0.40625 1.484375 -1.484375 2.3125q-1.078125 0.8125 -2.765625 0.8125q-2.125 0 -3.375 -1.296875q-1.234375 -1.3125 -1.234375 -3.671875q0 -2.453125 1.25 -3.796875q1.265625 -1.34375 3.265625 -1.34375q1.9375 0 3.15625 1.328125q1.234375 1.3125 1.234375 3.703125q0 0.15625 0 0.4375l-7.21875 0q0.09375 1.59375 0.90625 2.453125q0.8125 0.84375 2.015625 0.84375q0.90625 0 1.546875 -0.46875q0.640625 -0.484375 1.015625 -1.515625zm-5.390625 -2.65625l5.40625 0q-0.109375 -1.21875 -0.625 -1.828125q-0.78125 -0.953125 -2.03125 -0.953125q-1.125 0 -1.90625 0.765625q-0.765625 0.75 -0.84375 2.015625zm9.141327 5.765625l0 -9.671875l1.46875 0l0 1.375q1.0625 -1.59375 3.078125 -1.59375q0.875 0 1.609375 0.3125q0.734375 0.3125 1.09375 0.828125q0.375 0.5 0.515625 1.203125q0.09375 0.453125 0.09375 1.59375l0 5.953125l-1.640625 0l0 -5.890625q0 -1.0 -0.203125 -1.484375q-0.1875 -0.5 -0.671875 -0.796875q-0.484375 -0.296875 -1.140625 -0.296875q-1.046875 0 -1.8125 0.671875q-0.75 0.65625 -0.75 2.515625l0 5.28125l-1.640625 0zm11.453857 3.921875l-1.1875 0q2.734375 -4.375 2.734375 -8.75q0 -1.71875 -0.390625 -3.390625q-0.3125 -1.375 -0.875 -2.625q-0.359375 -0.828125 -1.46875 -2.734375l1.1875 0q1.703125 2.28125 2.53125 4.59375q0.6875 1.984375 0.6875 4.140625q0 2.46875 -0.9375 4.765625q-0.9375 2.296875 -2.28125 4.0z" fill-rule="nonzero"/><path fill="#ffffff" d="m265.9475 114.1262l0 0c0 -5.899849 4.782776 -10.682625 10.682617 -10.682625l174.2568 0c2.833191 0 5.5503845 1.1254883 7.5537415 3.128868c2.0033875 2.0033798 3.1288757 4.7205505 3.1288757 7.5537567l0 42.729225c0 5.8998566 -4.782776 10.682632 -10.682617 10.682632l-174.2568 0c-5.8998413 0 -10.682617 -4.782776 -10.682617 -10.682632z" fill-rule="evenodd"/><path stroke="#000000" stroke-width="1.0" stroke-linejoin="round" stroke-linecap="butt" d="m265.9475 114.1262l0 0c0 -5.899849 4.782776 -10.682625 10.682617 -10.682625l174.2568 0c2.833191 0 5.5503845 1.1254883 7.5537415 3.128868c2.0033875 2.0033798 3.1288757 4.7205505 3.1288757 7.5537567l0 42.729225c0 5.8998566 -4.782776 10.682632 -10.682617 10.682632l-174.2568 0c-5.8998413 0 -10.682617 -4.782776 -10.682617 -10.682632z" fill-rule="evenodd"/><path fill="#000000" d="m294.99878 132.52019l0 -0.515625l-8.53125 0l0 0.8125l-1.265625 0l0 -15.875l11.0625 0l0 15.578125l-1.265625 0zm-11.28125 0.375l-1.484375 0l0 -9.125q-0.59375 1.03125 -1.40625 1.921875l-0.96875 -1.265625q2.515625 -2.96875 3.40625 -8.453125l1.5625 0.59375q0.296875 0.296875 -0.21875 0.375q-0.296875 1.703125 -1.109375 4.15625q0.890625 0.0625 0.21875 0.515625l0 11.28125zm5.421875 -7.875l0 2.375l3.328125 0l0 -2.375l-3.328125 0zm-2.671875 -6.671875l0 12.25l8.53125 0l0 -12.25l-8.53125 0zm4.96875 2.453125l2.8125 0l0 1.40625l-2.8125 0l0 1.625l2.296875 0l0 5.34375l-1.265625 0l0 -0.59375l-3.328125 0l0 0.890625l-1.265625 0l0 -5.640625l2.078125 0l0 -1.625l-2.75 0l0 -1.40625l2.75 0l0 -1.9375l1.40625 0q0.59375 0.078125 0.078125 0.453125l0 1.484375zm15.21875 -4.015625l1.625 0q0.75 0.15625 0.078125 0.59375l0 3.046875q0.515625 7.125 7.5625 10.171875l-0.890625 1.859375q-5.109375 -2.234375 -7.265625 -8.09375q-1.5625 5.5625 -7.046875 8.09375l-1.125 -1.640625q7.0625 -2.75 7.0625 -10.171875l0 -3.859375zm21.96875 3.34375q-0.828125 2.078125 -4.234375 2.890625l7.5 0l0 6.90625l-10.546875 0l0 -6.90625l2.671875 0l-0.734375 -1.265625q4.078125 -0.59375 4.21875 -3.265625l-1.25 0q-0.828125 1.265625 -1.78125 2.015625l-1.046875 -0.828125q1.703125 -1.546875 2.75 -3.859375l1.265625 0.453125q0.296875 0.296875 -0.234375 0.375l-0.296875 0.65625l5.9375 0l0.234375 -0.21875l1.1875 0.8125l-0.375 0.296875q-0.515625 0.890625 -1.859375 2.234375l-1.109375 -0.75q0.59375 -0.515625 1.109375 -1.1875l-3.109375 0q1.25 2.453125 6.0 3.34375l-0.59375 1.40625q-4.078125 -0.734375 -5.703125 -3.109375zm5.1875 12.84375q-3.40625 -0.515625 -5.71875 -1.9375l1.125 -1.03125q2.375 1.1875 5.046875 1.484375l-0.453125 1.484375zm-15.0625 -1.265625q3.1875 -0.453125 5.265625 -1.703125l1.109375 1.03125q0.296875 0.53125 -0.4375 0.296875q-2.375 1.1875 -5.421875 1.78125l-0.515625 -1.40625zm11.65625 -6.6875l0 -1.109375l-7.578125 0l0 1.109375l7.578125 0zm-9.953125 -8.609375q1.109375 0.53125 2.453125 1.265625l-0.96875 1.265625q-0.96875 -0.59375 -2.453125 -1.265625l0.96875 -1.265625zm-0.671875 6.53125q-0.140625 0.75 -0.515625 0.078125l-0.8125 -1.265625q2.21875 -0.8125 4.0 -1.921875l0.75 1.109375q-1.78125 1.1875 -3.421875 2.0zm10.625 4.09375l0 -1.125l-7.578125 0l0 1.125l7.578125 0zm0 2.0l0 -1.109375l-7.578125 0l0 1.109375l7.578125 0zm10.53125 -2.0q-0.8125 2.59375 -2.296875 5.265625q0.078125 0.8125 -0.296875 0.453125l-1.40625 -1.34375q1.546875 -2.375 2.734375 -5.421875l1.265625 1.046875zm5.859375 1.921875q-0.59375 1.703125 -1.921875 3.421875l-1.265625 -1.046875q1.265625 -1.5625 1.9375 -3.484375l1.484375 0.734375q0.296875 0.296875 -0.234375 0.375zm6.3125 3.125q-1.625 -1.71875 -2.75 -3.5625l1.34375 -0.828125q1.40625 2.15625 2.515625 3.046875l-1.109375 1.34375zm-6.90625 -7.796875l0 1.5625l5.203125 0l0 -1.5625l-5.203125 0zm0 -2.671875l0 1.484375l5.203125 0l0 -1.484375l-5.203125 0zm2.015625 5.640625l-1.640625 0l-1.625 0l0 -7.046875l2.59375 0l0.140625 -1.9375l-4.15625 0l0 8.609375q0 3.484375 -2.078125 6.171875l-1.1875 -1.34375q1.78125 -2.234375 1.78125 -5.34375l0 -9.5l11.734375 0l0 1.40625l-4.3125 0l-0.515625 1.9375l3.71875 0l0 7.046875l-2.96875 0l0 4.53125q0 1.1875 -1.1875 1.1875l-1.34375 0l-0.296875 -1.40625l0.96875 0q0.375 0 0.375 -0.453125l0 -3.859375zm-9.796875 -6.390625q1.546875 0.75 2.671875 1.9375l-1.125 1.5625q-1.109375 -1.265625 -2.515625 -2.015625l0.96875 -1.484375zm2.078125 -0.8125q-1.125 -1.1875 -2.375 -1.921875l0.890625 -1.484375q1.484375 0.65625 2.4375 1.84375l-0.953125 1.5625zm24.9375 0.890625q-1.265625 7.421875 -3.046875 9.203125q-0.96875 0.96875 -2.0 0.96875q-1.1875 0 -1.859375 -0.671875q-1.78125 -1.78125 -1.78125 -4.453125q0 -3.265625 2.296875 -5.5625q2.53125 -2.53125 6.15625 -2.53125q3.265625 0 5.125 1.859375q2.078125 2.078125 2.078125 4.90625q0 3.03125 -1.921875 4.96875q-1.265625 1.265625 -3.859375 2.453125l-1.5625 -1.5625q2.59375 -0.8125 4.078125 -2.296875q1.40625 -1.421875 1.40625 -3.421875q0 -2.375 -1.546875 -3.9375q-1.5625 -1.546875 -4.90625 -1.40625l1.34375 0.671875q0.890625 0.375 0 0.8125zm-1.71875 -1.40625q-1.921875 0.4375 -3.328125 1.859375q-1.9375 1.921875 -1.9375 4.75q0 1.703125 1.109375 2.8125q0.234375 0.21875 0.671875 0.21875q0.453125 0 0.96875 -0.515625q1.703125 -1.703125 2.515625 -9.125zm22.421875 5.34375q1.625 3.265625 5.859375 5.421875l-0.8125 1.625q-4.3125 -2.296875 -6.609375 -7.046875l0 6.90625q0 1.1875 -1.1875 1.1875l-1.5625 0l-0.515625 -1.640625l1.484375 0q0.296875 0 0.296875 -0.296875l0 -10.015625l-5.1875 0l0 -1.40625l6.671875 0l0 1.25q0.15625 1.421875 0.890625 2.90625q2.375 -1.265625 3.9375 -3.265625l1.40625 1.328125q0.078125 0.453125 -0.4375 0.296875q-2.53125 2.078125 -4.234375 2.75zm-10.546875 -0.296875l0 -1.40625l4.90625 0l0.375 -0.375l1.328125 0.734375l-0.296875 0.375q-1.40625 5.5625 -6.015625 8.390625l-1.03125 -1.5625q4.0 -1.78125 5.1875 -6.15625l-4.453125 0zm5.28125 -8.53125q3.40625 0.8125 5.265625 1.78125l-0.75 1.484375q-3.328125 -1.484375 -5.1875 -1.78125l0.671875 -1.484375zm14.015625 3.328125l0.375 0.296875q1.109375 -1.703125 2.0 -3.78125l1.34375 0.671875q0.296875 0.296875 -0.21875 0.375q-0.890625 1.78125 -2.078125 3.484375q0.4375 0.375 0.890625 0.8125q1.03125 -1.40625 2.078125 -3.265625l1.25 0.8125q0.296875 0.296875 -0.21875 0.375q-1.5625 2.296875 -3.265625 4.609375l2.234375 -0.078125l-0.75 -1.34375l1.109375 -0.515625q1.1875 1.78125 1.640625 3.421875l-1.265625 0.515625l-0.375 -1.046875l-1.1875 0.15625l0 8.234375l-1.484375 0l0 -8.09375l-2.4375 0.234375q-0.078125 0.515625 -0.375 0.21875l-0.21875 -1.703125l1.625 0l0.890625 -1.265625q-0.890625 -0.890625 -2.375 -2.0l0.8125 -1.125zm10.46875 8.3125q0 4.3125 -4.453125 5.5l-0.734375 -1.484375q3.703125 -0.671875 3.703125 -4.3125l0 -1.921875l1.40625 0q0.59375 0.078125 0.078125 0.4375l0 1.78125zm-0.21875 -6.890625l0 -1.484375l-3.5625 0l0 -1.421875l3.5625 0l0 -2.0l1.40625 0q0.59375 0.078125 0.078125 0.453125l0 1.546875l4.234375 0l0 1.421875l-4.234375 0l0 1.484375l3.5625 0l0 1.40625l-8.015625 0l0 -1.40625l2.96875 0zm5.78125 5.78125l-1.484375 0l0 -1.78125l-6.296875 0l0 1.9375l-1.484375 0l0 -3.34375l9.265625 0l0 3.1875zm-2.8125 -1.1875q0.59375 0.078125 0.078125 0.453125l0 5.265625q0 0.296875 0.296875 0.296875l0.8125 0q0.375 0 0.4375 -0.453125l0.234375 -1.40625l1.40625 0.453125l-0.296875 1.5625q-0.21875 1.25 -1.484375 1.25l-1.703125 0q-1.1875 0 -1.1875 -1.1875l0 -6.234375l1.40625 0zm-8.015625 0.8125q1.109375 1.71875 1.484375 3.34375l-1.34375 0.59375q-0.515625 -1.921875 -1.328125 -3.484375l1.1875 -0.453125zm-3.859375 0.96875q-0.15625 2.0 -0.75 4.234375l-1.40625 -0.59375q0.59375 -2.078125 0.8125 -4.375l1.484375 0.296875q0.453125 0.21875 -0.140625 0.4375zm27.609375 -6.3125q-0.75 2.078125 -2.375 3.9375l-1.109375 -1.328125q2.515625 -2.53125 3.1875 -7.203125l1.5625 0.515625q0.65625 0.296875 -0.078125 0.453125q-0.21875 1.03125 -0.59375 2.21875l5.34375 0l-0.375 10.09375q-0.078125 2.96875 -2.375 2.96875l-2.078125 0l-0.21875 -1.40625l1.921875 0q1.046875 0 1.125 -1.34375l0.359375 -8.90625l-4.296875 0zm0.890625 6.90625q-1.046875 -1.484375 -2.296875 -2.671875l1.25 -1.328125q1.484375 1.328125 2.375 2.59375l-1.328125 1.40625zm-8.765625 -8.3125q0.453125 -1.40625 0.828125 -3.265625l1.78125 0.671875q0.296875 0.296875 -0.234375 0.375q-0.21875 0.953125 -0.8125 2.21875l2.75 0l0 12.25l-1.484375 0l0 -0.890625l-3.265625 0l0 1.484375l-1.484375 0l0 -12.84375l1.921875 0zm2.828125 1.40625l-3.265625 0l0 3.265625l3.265625 0l0 -3.265625zm0 4.6875l-3.265625 0l0 3.859375l3.265625 0l0 -3.859375zm24.484375 -2.53125q0.828125 0.15625 0.15625 0.59375l0 4.3125q1.859375 0.59375 3.859375 1.625l-0.890625 1.40625q-1.640625 -0.953125 -2.96875 -1.40625q-0.21875 1.5625 -0.96875 2.3125q-0.890625 0.890625 -2.453125 0.890625q-2.078125 0 -2.890625 -0.828125q-0.734375 -0.734375 -0.734375 -1.921875q0 -0.96875 0.734375 -1.71875q0.96875 -0.953125 2.828125 -0.953125q1.25 0 2.0 0.21875l0 -4.53125l1.328125 0zm-7.9375 -1.78125q-1.1875 0.15625 -2.96875 0.15625l-0.21875 -1.5625q1.859375 0 3.703125 -0.15625q0.375 -1.328125 0.890625 -3.5625l1.34375 0.453125q0.734375 0.296875 0 0.59375l-0.671875 2.375q1.265625 -0.15625 2.59375 -0.515625l0.375 1.546875q-2.078125 0.453125 -3.40625 0.53125q-1.1875 3.78125 -3.5 8.234375l-1.484375 -0.75q2.3125 -4.078125 3.34375 -7.34375zm7.125 -2.21875q2.078125 0.65625 4.96875 1.78125l-0.65625 1.546875q-3.125 -1.328125 -4.90625 -1.84375l0.59375 -1.484375zm-0.515625 9.9375q-0.890625 -0.296875 -2.0 -0.296875q-1.1875 0 -1.640625 0.453125q-0.375 0.359375 -0.375 0.890625q0 0.515625 0.296875 0.8125q0.453125 0.4375 1.5625 0.4375q1.046875 0 1.484375 -0.4375q0.671875 -0.671875 0.671875 -1.859375z" fill-rule="nonzero"/><path fill="#000000" d="m318.69626 146.28581l-2.140625 0l0 -1.40625l2.140625 0l0 -4.09375l-1.484375 0l0 -1.40625l7.875 0l0 1.40625l-1.40625 0l0 4.09375l2.140625 0l0 1.40625l-2.140625 0l0 8.390625l-1.484375 0l0 -8.390625l-2.015625 0l0 1.265625q0 4.75 -1.921875 7.125l-1.40625 -1.109375q1.84375 -1.859375 1.84375 -6.015625l0 -1.265625zm3.5 -5.5l-2.015625 0l0 4.09375l2.015625 0l0 -4.09375zm3.265625 2.53125q3.625 -1.9375 4.8125 -4.15625l1.484375 1.109375q0.234375 0.15625 -0.359375 0.296875q-1.265625 2.15625 -4.984375 4.234375l-0.953125 -1.484375zm-0.078125 4.59375q4.234375 -1.84375 5.484375 -4.453125l1.484375 1.1875q0.234375 0.15625 -0.359375 0.296875q-2.078125 2.90625 -5.578125 4.609375l-1.03125 -1.640625zm7.859375 0.75q0.375 0.140625 -0.359375 0.375q-2.453125 3.625 -7.0625 5.421875l-0.890625 -1.640625q4.75 -1.78125 6.828125 -5.34375l1.484375 1.1875zm13.59375 0q1.25 -1.9375 2.21875 -4.75l1.40625 0.8125q0.53125 0.296875 -0.140625 0.453125q-1.109375 2.734375 -2.671875 5.109375q1.625 2.3125 2.453125 2.3125q0.65625 0 0.890625 -1.78125l1.40625 0.734375q-0.59375 2.96875 -1.640625 2.96875q-2.078125 0 -4.15625 -3.1875q-2.078125 2.296875 -4.8125 3.640625l-0.890625 -1.40625q3.484375 -1.71875 4.890625 -3.640625q-1.03125 -2.53125 -1.03125 -6.6875l0 -0.671875l-6.3125 0l0 2.609375l4.75 0l-0.15625 5.046875q-0.0625 1.40625 -1.109375 1.40625l-1.921875 0l-0.234375 -1.40625l1.265625 0q0.59375 0 0.59375 -0.59375l0.15625 -3.046875l-3.34375 0l0 2.15625q0 3.703125 -1.859375 6.078125l-1.265625 -1.03125q1.640625 -2.015625 1.640625 -4.828125l0 -7.796875l7.796875 0l0 -3.1875l1.40625 0q0.59375 0.078125 0.078125 0.4375l0 2.75l5.640625 0l0 1.40625l-5.640625 0l0 0.671875q0 3.484375 0.59375 5.421875zm1.1875 -10.46875q1.1875 0.59375 2.078125 1.484375l-1.125 1.109375q-0.734375 -0.8125 -2.0 -1.546875l1.046875 -1.046875z" fill-rule="nonzero"/><path fill="#000000" d="m362.75455 157.33269q-1.359375 -1.703125 -2.296875 -4.0q-0.9375 -2.296875 -0.9375 -4.765625q0 -2.15625 0.703125 -4.140625q0.828125 -2.3125 2.53125 -4.59375l1.171875 0q-1.09375 1.890625 -1.453125 2.703125q-0.546875 1.25 -0.875 2.625q-0.390625 1.703125 -0.390625 3.421875q0 4.375 2.71875 8.75l-1.171875 0zm3.212677 -3.921875l0 -13.359375l5.015625 0q1.53125 0 2.453125 0.40625q0.921875 0.40625 1.4375 1.25q0.53125 0.84375 0.53125 1.765625q0 0.859375 -0.46875 1.625q-0.453125 0.75 -1.390625 1.203125q1.203125 0.359375 1.859375 1.21875q0.65625 0.859375 0.65625 2.015625q0 0.9375 -0.40625 1.75q-0.390625 0.796875 -0.984375 1.234375q-0.578125 0.4375 -1.453125 0.671875q-0.875 0.21875 -2.15625 0.21875l-5.09375 0zm1.78125 -7.75l2.875 0q1.1875 0 1.6875 -0.140625q0.671875 -0.203125 1.015625 -0.671875q0.34375 -0.46875 0.34375 -1.171875q0 -0.65625 -0.328125 -1.15625q-0.3125 -0.515625 -0.90625 -0.703125q-0.59375 -0.1875 -2.03125 -0.1875l-2.65625 0l0 4.03125zm0 6.171875l3.3125 0q0.859375 0 1.203125 -0.0625q0.609375 -0.109375 1.015625 -0.359375q0.421875 -0.265625 0.6875 -0.75q0.265625 -0.484375 0.265625 -1.125q0 -0.75 -0.390625 -1.296875q-0.375 -0.546875 -1.0625 -0.765625q-0.671875 -0.234375 -1.953125 -0.234375l-3.078125 0l0 4.59375zm16.865448 1.578125l0 -1.421875q-1.125 1.640625 -3.0625 1.640625q-0.859375 0 -1.609375 -0.328125q-0.734375 -0.328125 -1.09375 -0.828125q-0.359375 -0.5 -0.5 -1.21875q-0.109375 -0.46875 -0.109375 -1.53125l0 -5.984375l1.640625 0l0 5.359375q0 1.28125 0.109375 1.734375q0.15625 0.640625 0.65625 1.015625q0.5 0.375 1.234375 0.375q0.734375 0 1.375 -0.375q0.65625 -0.390625 0.921875 -1.03125q0.265625 -0.65625 0.265625 -1.890625l0 -5.1875l1.640625 0l0 9.671875l-1.46875 0zm4.0476074 -11.46875l0 -1.890625l1.640625 0l0 1.890625l-1.640625 0zm0 11.46875l0 -9.671875l1.640625 0l0 9.671875l-1.640625 0zm4.097931 0l0 -13.359375l1.640625 0l0 13.359375l-1.640625 0zm10.457336 0l0 -1.21875q-0.90625 1.4375 -2.703125 1.4375q-1.15625 0 -2.125 -0.640625q-0.96875 -0.640625 -1.5 -1.78125q-0.53125 -1.140625 -0.53125 -2.625q0 -1.453125 0.484375 -2.625q0.484375 -1.1875 1.4375 -1.8125q0.96875 -0.625 2.171875 -0.625q0.875 0 1.546875 0.375q0.6875 0.359375 1.109375 0.953125l0 -4.796875l1.640625 0l0 13.359375l-1.53125 0zm-5.171875 -4.828125q0 1.859375 0.78125 2.78125q0.78125 0.921875 1.84375 0.921875q1.078125 0 1.828125 -0.875q0.75 -0.890625 0.75 -2.6875q0 -1.984375 -0.765625 -2.90625q-0.765625 -0.9375 -1.890625 -0.9375q-1.078125 0 -1.8125 0.890625q-0.734375 0.890625 -0.734375 2.8125zm10.360107 8.75l-1.1875 0q2.734375 -4.375 2.734375 -8.75q0 -1.71875 -0.390625 -3.390625q-0.3125 -1.375 -0.875 -2.625q-0.359375 -0.828125 -1.46875 -2.734375l1.1875 0q1.703125 2.28125 2.53125 4.59375q0.6875 1.984375 0.6875 4.140625q0 2.46875 -0.9375 4.765625q-0.9375 2.296875 -2.28125 4.0z" fill-rule="nonzero"/><path fill="#ffffff" d="m383.38846 26.323023l0 0c0 -5.2069454 4.2210693 -9.428009 9.428009 -9.428009l182.24634 0c2.5004883 0 4.8984985 0.9933052 6.666626 2.7614002c1.7680664 1.768095 2.7613525 4.1661453 2.7613525 6.666609l0 37.710915c0 5.2069397 -4.2210083 9.428009 -9.4279785 9.428009l-182.24634 0c-5.2069397 0 -9.428009 -4.2210693 -9.428009 -9.428009z" fill-rule="evenodd"/><path stroke="#000000" stroke-width="1.0" stroke-linejoin="round" stroke-linecap="butt" d="m383.38846 26.323023l0 0c0 -5.2069454 4.2210693 -9.428009 9.428009 -9.428009l182.24634 0c2.5004883 0 4.8984985 0.9933052 6.666626 2.7614002c1.7680664 1.768095 2.7613525 4.1661453 2.7613525 6.666609l0 37.710915c0 5.2069397 -4.2210083 9.428009 -9.4279785 9.428009l-182.24634 0c-5.2069397 0 -9.428009 -4.2210693 -9.428009 -9.428009z" fill-rule="evenodd"/><path fill="#000000" d="m411.06464 47.348476q1.25 -1.9375 2.21875 -4.75l1.40625 0.8125q0.53125 0.296875 -0.140625 0.453125q-1.109375 2.734375 -2.671875 5.109375q1.625 2.3125 2.453125 2.3125q0.65625 0 0.890625 -1.78125l1.40625 0.734375q-0.59375 2.96875 -1.640625 2.96875q-2.078125 0 -4.15625 -3.1875q-2.078125 2.296875 -4.8125 3.640625l-0.890625 -1.40625q3.484375 -1.71875 4.890625 -3.640625q-1.03125 -2.53125 -1.03125 -6.6875l0 -0.671875l-6.3125 0l0 2.609375l4.75 0l-0.15625 5.046875q-0.0625 1.40625 -1.109375 1.40625l-1.921875 0l-0.234375 -1.40625l1.265625 0q0.59375 0 0.59375 -0.59375l0.15625 -3.046875l-3.34375 0l0 2.15625q0 3.703125 -1.859375 6.078125l-1.265625 -1.03125q1.640625 -2.015625 1.640625 -4.828125l0 -7.796875l7.796875 0l0 -3.1875l1.40625 0q0.59375 0.078125 0.078125 0.4375l0 2.75l5.640625 0l0 1.40625l-5.640625 0l0 0.671875q0 3.484375 0.59375 5.421875zm1.1875 -10.46875q1.1875 0.59375 2.078125 1.484375l-1.125 1.109375q-0.734375 -0.8125 -2.0 -1.546875l1.046875 -1.046875zm22.265625 16.625q-6.390625 -1.484375 -8.46875 -6.75l-2.296875 0l0 4.890625l4.15625 -0.734375l0.296875 1.265625l-7.640625 1.5625q-0.078125 0.59375 -0.375 0.296875l-0.515625 -1.78125l2.59375 -0.375l0 -5.125l-3.5625 0l0 -1.40625l3.5625 0l0 -8.015625l10.6875 0l0 1.40625l-9.203125 0l0 1.109375l8.15625 0l0 1.40625l-8.15625 0l0 1.265625l8.3125 0l0 1.40625l-8.3125 0l0 1.421875l11.421875 0l0 1.40625l-7.640625 0q0.453125 0.96875 1.640625 2.15625l2.375 -1.859375l1.25 0.890625q0.53125 0.375 -0.21875 0.375l-2.296875 1.546875q1.484375 1.046875 5.125 2.015625l-0.890625 1.625zm7.34375 -10.765625q-0.375 -1.625 -0.671875 -4.515625l1.5625 0q0.734375 0.140625 0.140625 0.59375q0 1.1875 0.453125 3.40625l3.703125 -1.328125l0.15625 -3.421875l1.40625 0q0.8125 0.15625 0.15625 0.59375l-0.234375 2.53125q0.671875 -0.15625 1.34375 -0.15625q2.15625 0 3.265625 1.109375q1.1875 1.1875 1.1875 3.046875q0 1.78125 -0.890625 2.671875q-1.109375 1.109375 -2.890625 1.109375q-2.375 0 -3.796875 -1.25l0.671875 -1.421875q1.640625 1.125 2.96875 1.125q1.1875 0 1.9375 -0.75q0.4375 -0.4375 0.4375 -1.484375q0 -1.1875 -0.734375 -1.921875q-0.828125 -0.828125 -2.15625 -0.828125q-1.484375 0 -2.96875 0.59375l-3.1875 1.265625q1.25 4.828125 3.1875 8.765625l-1.703125 0.671875q-1.71875 -4.015625 -2.96875 -8.84375l-3.5625 1.484375l-0.828125 -1.484375l4.015625 -1.5625zm24.34375 2.453125l-2.671875 0.15625l0 2.671875q0 4.296875 -6.09375 5.859375l-0.515625 -1.5625q5.125 -1.03125 5.125 -4.453125l0 -2.453125l-3.5625 0.15625q-0.078125 0.59375 -0.375 0.296875l-0.375 -1.9375l2.96875 0l1.5625 -3.109375l-5.125 0l0 -1.40625l6.984375 0l0 -2.609375l1.40625 0q0.59375 0.078125 0.078125 0.453125l0 2.15625l6.96875 0l0 1.40625l-8.375 0l-1.859375 3.1875l6.828125 -0.21875q-1.109375 -1.046875 -2.53125 -1.9375l1.046875 -0.890625q2.671875 1.640625 4.828125 3.859375l-1.125 1.125q-0.4375 -0.53125 -0.953125 -0.96875l-2.75 0.140625l0 6.09375q0 0.515625 0.4375 0.515625l2.90625 0q0.515625 0 0.59375 -0.4375l0.21875 -1.640625l1.484375 0.375l-0.21875 1.5625q-0.234375 1.5625 -1.421875 1.5625l-4.078125 0q-1.40625 0 -1.40625 -1.5l0 -6.453125zm18.40625 -3.1875l4.96875 0l0 1.40625l-4.96875 0l0 1.109375l5.484375 0l0 1.421875l-5.484375 0l0 1.1875l7.640625 0l0 1.40625l-7.203125 0q1.640625 2.21875 7.203125 3.40625l-0.515625 1.71875q-5.859375 -1.40625 -7.640625 -4.453125q-1.78125 3.78125 -7.796875 4.671875l-0.59375 -1.5625q5.5625 -0.8125 6.96875 -3.78125l-7.046875 0l0 -1.40625l7.5 0l0 -1.1875l-5.265625 0l0 -1.421875l5.265625 0l0 -1.109375l-4.90625 0l0 -1.40625l4.90625 0l0 -1.484375l1.40625 0q0.59375 0.078125 0.078125 0.4375l0 1.046875zm-8.53125 -3.484375l7.046875 0l0 -1.71875l1.625 0q0.75 0.15625 0.078125 0.59375l0 1.125l6.984375 0l0 4.0l-1.484375 0l0 -2.59375l-12.765625 0l0 2.59375l-1.484375 0l0 -4.0zm35.390625 6.75l-0.21875 1.328125q-0.296875 1.78125 -1.921875 1.1875q-1.71875 -0.59375 -2.828125 -1.84375q-0.890625 1.109375 -2.890625 2.296875l-0.96875 -1.265625q1.859375 -0.96875 2.96875 -2.21875q-1.265625 -2.453125 -1.484375 -5.046875l-6.90625 0l0 3.484375q0 3.265625 -1.40625 4.96875l-1.328125 -0.890625q1.25 -1.5625 1.25 -3.9375l0 -4.8125l8.3125 0l-0.0625 -1.9375l1.40625 0q0.671875 0.078125 0.078125 0.453125l0.0625 1.484375l2.234375 0q-0.515625 -0.375 -1.40625 -0.890625l1.109375 -0.890625q1.109375 0.515625 1.78125 1.03125l-0.890625 0.75l2.515625 0l0 1.1875l-5.265625 0q0.296875 2.21875 1.109375 3.921875q0.828125 -1.25 1.421875 -3.03125l1.328125 0.59375q0.515625 0.359375 -0.140625 0.515625q-0.671875 1.78125 -1.78125 3.1875q0.8125 0.890625 1.703125 1.265625q0.515625 0.21875 0.59375 -0.515625l0.078125 -0.828125l1.546875 0.453125zm-13.421875 3.5625q0.359375 0.21875 -0.15625 0.515625q-0.515625 2.234375 -1.265625 4.015625l-1.546875 -0.8125q0.8125 -1.5625 1.484375 -4.09375l1.484375 0.375zm11.9375 3.9375q-1.25 -2.015625 -2.59375 -3.34375l1.109375 -0.890625q1.484375 1.265625 2.828125 3.046875l-1.34375 1.1875zm-7.421875 -4.90625q1.265625 1.109375 2.3125 2.53125l-1.34375 0.953125q-0.96875 -1.40625 -2.15625 -2.59375l1.1875 -0.890625zm0.890625 -4.96875l0 3.265625l-4.0 0l0 0.59375l-1.265625 0l0 -3.859375l5.265625 0zm-5.5625 -2.078125l5.796875 0l0 1.1875l-5.796875 0l0 -1.1875zm1.5625 4.453125l2.75 0l0 -1.484375l-2.75 0l0 1.484375zm0.8125 2.75q0.59375 0.0625 0.078125 0.4375l0 3.046875q0 0.59375 0.515625 0.59375l4.53125 0q0.59375 0 0.671875 -0.59375l0.140625 -0.96875l1.484375 0.15625l-0.296875 1.5625q-0.21875 1.25 -1.703125 1.25l-5.5 0q-1.328125 0 -1.328125 -1.25l0 -4.234375l1.40625 0zm22.421875 -6.390625q-1.265625 7.421875 -3.046875 9.203125q-0.96875 0.96875 -2.0 0.96875q-1.1875 0 -1.859375 -0.671875q-1.78125 -1.78125 -1.78125 -4.453125q0 -3.265625 2.296875 -5.5625q2.53125 -2.53125 6.15625 -2.53125q3.265625 0 5.125 1.859375q2.078125 2.078125 2.078125 4.90625q0 3.03125 -1.921875 4.96875q-1.265625 1.265625 -3.859375 2.453125l-1.5625 -1.5625q2.59375 -0.8125 4.078125 -2.296875q1.40625 -1.421875 1.40625 -3.421875q0 -2.375 -1.546875 -3.9375q-1.5625 -1.546875 -4.90625 -1.40625l1.34375 0.671875q0.890625 0.375 0 0.8125zm-1.71875 -1.40625q-1.921875 0.4375 -3.328125 1.859375q-1.9375 1.921875 -1.9375 4.75q0 1.703125 1.109375 2.8125q0.234375 0.21875 0.671875 0.21875q0.453125 0 0.96875 -0.515625q1.703125 -1.703125 2.515625 -9.125zm14.1875 0.59375l0 12.46875l-1.484375 0l0 -13.875l5.265625 0l1.109375 -2.75l1.78125 0.671875q0.296875 0.296875 -0.21875 0.359375l-1.109375 1.71875l7.640625 0l0 12.765625q0 1.1875 -1.1875 1.1875l-2.15625 0l-0.140625 -1.640625l1.703125 0q0.296875 0 0.296875 -0.296875l0 -10.609375l-11.5 0zm3.78125 3.78125l0 3.125l3.9375 0l0 -3.125l-3.9375 0zm3.9375 5.421875l0 -0.890625l-3.9375 0l0 1.328125l-1.484375 0l0 -7.265625l6.90625 0l0 6.828125l-1.484375 0zm15.5 0.515625l0 -13.140625l1.640625 0q0.734375 0.15625 0.078125 0.59375l0 4.3125l6.0 0l0 1.625l-6.0 0l0 6.609375l7.71875 0l0 1.640625l-16.109375 0l0 -1.640625l6.671875 0z" fill-rule="nonzero"/><path fill="#000000" fill-opacity="0.0" d="m195.6483 310.02362l30.173218 0l0 -57.76378" fill-rule="evenodd"/><path stroke="#000000" stroke-width="3.0" stroke-linejoin="round" stroke-linecap="butt" d="m195.6483 310.02362l30.173218 0l0 -39.763763" fill-rule="evenodd"/><path fill="#000000" stroke="#000000" stroke-width="3.0" stroke-linecap="butt" d="m230.77672 270.25983l-4.9552 -13.614288l-4.9552 13.614288z" fill-rule="evenodd"/><path fill="#000000" fill-opacity="0.0" d="m334.57742 220.19817l29.196869 0l0 -52.661423" fill-rule="evenodd"/><path stroke="#000000" stroke-width="3.0" stroke-linejoin="round" stroke-linecap="butt" d="m334.57742 220.19817l29.196869 0l0 -34.661423" fill-rule="evenodd"/><path fill="#000000" stroke="#000000" stroke-width="3.0" stroke-linecap="butt" d="m368.72946 185.53674l-4.9551697 -13.614288l-4.9552 13.614288z" fill-rule="evenodd"/><path fill="#000000" fill-opacity="0.0" d="m461.56955 135.49081l22.362213 0l0 -62.015747" fill-rule="evenodd"/><path stroke="#000000" stroke-width="3.0" stroke-linejoin="round" stroke-linecap="butt" d="m461.56955 135.49081l22.362213 0l0 -44.015747" fill-rule="evenodd"/><path fill="#000000" stroke="#000000" stroke-width="3.0" stroke-linecap="butt" d="m488.88696 91.47507l-4.9552 -13.614296l-4.9552 13.614296z" fill-rule="evenodd"/><path fill="#000000" fill-opacity="0.0" d="m383.38846 45.17848l-345.00787 0l0 232.7874" fill-rule="evenodd"/><path stroke="#000000" stroke-width="3.0" stroke-linejoin="round" stroke-linecap="butt" d="m383.38846 45.17848l-345.00787 0l0 214.7874" fill-rule="evenodd"/><path fill="#000000" stroke="#000000" stroke-width="3.0" stroke-linecap="butt" d="m33.42538 259.96588l4.9551964 13.614288l4.9551964 -13.614288z" fill-rule="evenodd"/><path fill="#000000" fill-opacity="0.0" d="m33.27559 277.97638l10.236221 0l0 12.787415l-10.236221 0z" fill-rule="evenodd"/><path fill="#000000" fill-opacity="0.0" d="m43.51181 51.194225l208.34645 0l0 80.377945l-208.34645 0z" fill-rule="evenodd"/><path fill="#000000" d="m60.01181 68.23923q-3.046875 0.21875 -6.015625 0.21875l-0.4375 -1.484375q3.625 0 5.859375 -0.140625q-0.75 -2.078125 -1.046875 -3.8593788l1.640625 0q0.671875 0.140625 0.140625 0.59375q0.296875 1.4062538 0.890625 3.1093788q2.609375 -0.21875 4.453125 -0.65625l0.375 1.625q-2.15625 0.296875 -4.234375 0.453125q1.484375 2.8125 4.53125 4.890625l-1.109375 1.34375q-2.75 -1.265625 -5.421875 -1.265625q-2.453125 0 -3.40625 0.96875q-0.453125 0.4375 -0.453125 1.25q0 0.75 0.671875 1.421875q1.03125 1.03125 4.890625 1.03125l2.609375 0l-0.375 1.640625l-2.828125 0q-3.859375 0 -5.40625 -1.5625q-1.125 -1.109375 -1.125 -2.53125q0 -1.40625 0.828125 -2.21875q1.328125 -1.34375 4.15625 -1.34375q2.8125 0 3.265625 0.296875q-1.78125 -2.21875 -2.453125 -3.78125zm11.953125 9.203125l1.78125 0q3.703125 0 4.671875 -0.96875q0.8125 -0.8125 0.8125 -1.84375q0 -0.890625 -0.734375 -1.640625q-0.671875 -0.671875 -2.234375 -0.671875q-3.265625 0 -5.9375 3.203125l-1.484375 -0.15625l0.8125 -7.9375l1.5625 0.296875q0.75 0.296875 0 0.59375l-0.515625 4.828125q2.59375 -2.234375 5.9375 -2.234375q2.0 0 3.1875 1.1875q0.96875 0.96875 0.96875 2.53125q0 1.703125 -1.265625 2.96875q-1.484375 1.484375 -5.640625 1.484375l-1.328125 0l-0.59375 -1.640625zm-0.890625 -14.171879q2.078125 0.515625 5.640625 1.7812538l-0.75 1.484375q-2.671875 -1.109375 -5.5625 -1.9375l0.671875 -1.3281288zm23.960938 13.953129q-3.484375 0 -5.78125 -2.234375l0.96875 -1.25q2.0 1.921875 4.8125 1.84375l4.09375 0l0 1.640625l-4.09375 0zm-10.609375 1.40625q-0.21875 -3.859375 -0.21875 -6.609375q0 -3.328125 0.8125 -7.9375l1.484375 0.375q0.8125 0.140625 0.078125 0.671875q-0.75 4.296875 -0.75 6.890625q0 2.90625 0.296875 6.46875l-1.703125 0.140625zm13.734375 -10.984375q-3.1875 -0.078125 -8.3125 0.453125l0 -1.5625q5.34375 -0.515625 8.3125 -0.453125l0 1.5625zm17.511719 -2.0q0.59375 0 0.96875 -0.375q0.375 -0.375 0.375 -0.96875q0 -0.5937538 -0.375 -0.9531288q-0.375 -0.375 -0.96875 -0.375q-0.59375 0 -0.96875 0.375q-0.359375 0.359375 -0.359375 0.9531288q0 0.59375 0.359375 0.96875q0.375 0.375 0.96875 0.375zm0 0.734375q-0.890625 0 -1.484375 -0.59375q-0.59375 -0.59375 -0.59375 -1.484375q0 -0.8906288 0.59375 -1.4843788q0.59375 -0.59375 1.484375 -0.59375q0.890625 0 1.484375 0.59375q0.59375 0.59375 0.59375 1.4843788q0 0.890625 -0.59375 1.484375q-0.59375 0.59375 -1.484375 0.59375zm-2.515625 4.15625q2.671875 2.828125 4.0 5.203125l-1.625 1.109375q-1.5625 -2.75 -3.796875 -5.125l1.421875 -1.1875zm-3.5625 -3.1875l6.828125 0l0 1.640625l-6.828125 0l0 10.3125l-1.71875 0l0 -10.3125l-6.671875 0l0 -1.640625l6.671875 0l0 -4.156254l1.5625 0q0.8125 0.15625 0.15625 0.59375l0 3.5625038zm-3.9375 4.078125q0.4375 0.375 -0.296875 0.53125q-1.109375 2.4375 -2.828125 5.109375l-1.625 -0.890625q1.859375 -2.671875 3.109375 -5.640625l1.640625 0.890625zm28.71875 -1.546875q-3.78125 6.078125 -11.71875 8.609375q-0.234375 0.890625 -0.75 0.078125l-1.03125 -1.640625q8.078125 -1.78125 12.171875 -8.390625l1.328125 1.34375zm-11.421875 2.0q-2.234375 -1.640625 -3.71875 -2.375l1.109375 -1.5625q1.859375 0.96875 3.796875 2.375l-1.1875 1.5625zm2.21875 -4.375q-2.0 -1.421875 -3.703125 -2.375l0.953125 -1.5625038q2.015625 1.1093788 3.796875 2.3750038l-1.046875 1.5625zm6.15625 -5.046879q1.265625 0.953125 2.53125 2.2968788l-0.96875 0.96875q-1.328125 -1.484375 -2.515625 -2.3750038l0.953125 -0.890625zm-1.78125 1.25q1.265625 1.0468788 2.53125 2.3750038l-0.96875 0.890625q-1.265625 -1.328125 -2.59375 -2.4375l1.03125 -0.8281288zm13.8046875 6.984379l-7.421875 0l0 -1.640625l15.21875 0l0 1.640625l-6.078125 0l0 0.96875q0 4.671875 -3.34375 7.71875l-1.484375 -1.109375q3.109375 -2.453125 3.109375 -6.609375l0 -0.96875zm-4.75 -4.53125l0 -1.625l9.875 0l0 1.625l-9.875 0zm21.378906 13.4375l-1.484375 0l0 -6.90625q-1.625 1.265625 -4.890625 2.890625l-1.046875 -1.25q7.046875 -3.421875 9.65625 -7.5l1.25 0.96875q0.453125 0.359375 -0.296875 0.515625q-1.25 1.5625 -3.1875 3.1875l0 8.09375zm5.6445312 -12.546875l0 -1.625l11.203125 0l1.109375 -0.234375l0.828125 0.75q-0.296875 9.796875 -10.390625 12.625l-1.34375 -1.640625q9.28125 -2.078125 9.71875 -9.875l-11.125 0zm11.65625 -1.859375q-0.96875 -1.03125 -1.9375 -1.8437538l0.890625 -0.890625q1.046875 0.8125 2.0 1.9218788l-0.953125 0.8125zm2.671875 -0.21875q-1.1875 -1.3281288 -2.234375 -2.2187538l0.890625 -0.75q1.1875 0.890625 2.234375 2.1562538l-0.890625 0.8125zm19.507812 6.3125l-0.21875 1.328125q-0.296875 1.78125 -1.921875 1.1875q-1.71875 -0.59375 -2.828125 -1.84375q-0.890625 1.109375 -2.890625 2.296875l-0.96875 -1.265625q1.859375 -0.96875 2.96875 -2.21875q-1.265625 -2.453125 -1.484375 -5.046875l-6.90625 0l0 3.484375q0 3.265625 -1.40625 4.96875l-1.328125 -0.890625q1.25 -1.5625 1.25 -3.9375l0 -4.8125l8.3125 0l-0.0625 -1.9375038l1.40625 0q0.671875 0.078125 0.078125 0.453125l0.0625 1.4843788l2.234375 0q-0.515625 -0.375 -1.40625 -0.8906288l1.109375 -0.890625q1.109375 0.515625 1.78125 1.03125l-0.890625 0.7500038l2.515625 0l0 1.1875l-5.265625 0q0.296875 2.21875 1.109375 3.921875q0.828125 -1.25 1.421875 -3.03125l1.328125 0.59375q0.515625 0.359375 -0.140625 0.515625q-0.671875 1.78125 -1.78125 3.1875q0.8125 0.890625 1.703125 1.265625q0.515625 0.21875 0.59375 -0.515625l0.078125 -0.828125l1.546875 0.453125zm-13.421875 3.5625q0.359375 0.21875 -0.15625 0.515625q-0.515625 2.234375 -1.265625 4.015625l-1.546875 -0.8125q0.8125 -1.5625 1.484375 -4.09375l1.484375 0.375zm11.9375 3.9375q-1.25 -2.015625 -2.59375 -3.34375l1.109375 -0.890625q1.484375 1.265625 2.828125 3.046875l-1.34375 1.1875zm-7.421875 -4.90625q1.265625 1.109375 2.3125 2.53125l-1.34375 0.953125q-0.96875 -1.40625 -2.15625 -2.59375l1.1875 -0.890625zm0.890625 -4.96875l0 3.265625l-4.0 0l0 0.59375l-1.265625 0l0 -3.859375l5.265625 0zm-5.5625 -2.078125l5.796875 0l0 1.1875l-5.796875 0l0 -1.1875zm1.5625 4.453125l2.75 0l0 -1.484375l-2.75 0l0 1.484375zm0.8125 2.75q0.59375 0.0625 0.078125 0.4375l0 3.046875q0 0.59375 0.515625 0.59375l4.53125 0q0.59375 0 0.671875 -0.59375l0.140625 -0.96875l1.484375 0.15625l-0.296875 1.5625q-0.21875 1.25 -1.703125 1.25l-5.5 0q-1.328125 0 -1.328125 -1.25l0 -4.234375l1.40625 0zm18.40625 -8.25q0.515625 0.75 0.8125 2.15625l-1.25 0.59375q-0.296875 -1.328125 -0.671875 -2.078125l1.109375 -0.671875zm-3.34375 1.34375q-0.140625 2.59375 -0.65625 4.96875l-1.484375 -0.296875q0.59375 -2.890625 0.65625 -5.34375l1.421875 0.21875q0.65625 0.15625 0.0625 0.453125zm2.015625 12.6875l-1.484375 0l0 -17.140629l1.40625 0q0.734375 0.140625 0.078125 0.59375l0 16.546879zm12.609375 -15.4375l0 1.1875l-4.53125 0l0 0.96875l3.640625 0l0 1.1875l-3.640625 0l0 1.03125l5.046875 0l0 1.1875l-11.34375 0l0 -1.1875l4.8125 0l0 -1.03125l-3.625 0l0 -1.1875l3.625 0l0 -0.96875l-4.453125 0l0 -1.1875l4.453125 0l0 -1.7812538l1.421875 0q0.59375 0.078125 0.0625 0.453125l0 1.3281288l4.53125 0zm-1.109375 6.53125l0 7.796875q0 0.96875 -1.046875 0.96875l-1.25 0l-0.453125 -1.40625l0.96875 0q0.296875 0 0.296875 -0.3125l0 -1.40625l-5.125 0l0 3.34375l-1.484375 0l0 -8.984375l8.09375 0zm-1.484375 1.1875l-5.125 0l0 1.046875l5.125 0l0 -1.046875zm0 2.234375l-5.125 0l0 1.03125l5.125 0l0 -1.03125z" fill-rule="nonzero"/><path fill="#000000" d="m58.371185 91.90485q0.890625 -0.296875 1.71875 -0.296875q0.953125 0 1.546875 0.59375q0.453125 0.4375 0.53125 1.625q2.21875 -0.8125 5.046875 -1.703125l0.515625 1.78125q-2.890625 0.453125 -5.421875 1.40625l0 3.265625l-1.484375 0l0 -2.671875q-2.21875 1.046875 -2.890625 1.71875q-0.8125 0.8125 -0.8125 1.625q0 0.453125 0.4375 0.890625q0.515625 0.53125 2.0 0.53125l6.234375 0l0 1.40625l-6.296875 0q-2.375 0 -3.34375 -0.96875q-0.75 -0.75 -0.75 -1.859375q0 -1.1875 0.96875 -2.15625q1.484375 -1.484375 4.375 -2.671875q-0.0625 -0.890625 -0.359375 -1.1875q-0.296875 -0.296875 -1.265625 -0.296875q-1.484375 0 -4.53125 2.671875l-1.265625 -1.25q3.5 -2.15625 4.75 -4.75q-2.078125 0.140625 -4.15625 0.296875l-0.296875 -1.484375q2.671875 -0.078125 5.046875 -0.234375q0.375 -0.890625 0.890625 -2.96875l1.421875 0.375q0.734375 0.296875 0 0.59375q-0.296875 0.96875 -0.671875 1.9375q2.671875 -0.234375 5.125 -0.59375l0.21875 1.546875q-2.890625 0.234375 -5.796875 0.453125q-0.734375 1.484375 -1.484375 2.375zm12.394531 -3.78125l0.59375 0.4375q1.1875 -1.859375 1.9375 -3.5625l1.40625 0.8125q0.375 0.296875 -0.21875 0.375q-0.890625 1.5625 -2.078125 3.1875l1.03125 0.890625q1.046875 -1.25 2.078125 -3.03125l1.265625 0.8125q0.453125 0.296875 -0.140625 0.375q-1.78125 2.375 -3.5625 4.375l2.4375 -0.15625l-0.65625 -1.1875l1.25 -0.515625q0.96875 1.265625 1.71875 3.421875l-1.484375 0.59375l-0.375 -1.125l-1.640625 0.15625l0 8.171875l-1.484375 0l0 -8.03125l-2.515625 0.078125q-0.078125 0.515625 -0.375 0.21875l-0.375 -1.625l1.78125 0l1.1875 -1.34375q-1.328125 -1.03125 -2.671875 -2.078125l0.890625 -1.25zm6.6875 4.453125q2.375 -0.890625 3.265625 -1.640625q-1.265625 -1.328125 -2.15625 -3.40625l-1.03125 0l0 -1.421875l6.75 0l0.21875 -0.21875l1.1875 0.96875l-0.375 0.296875q-0.65625 1.921875 -2.375 3.703125q1.125 0.75 4.09375 1.484375l-0.53125 1.640625q-3.328125 -1.046875 -4.59375 -2.15625q-1.5625 1.34375 -3.78125 2.15625l-0.671875 -1.40625zm-0.515625 8.984375l0 -1.421875l4.078125 0l0 -3.1875l-3.046875 0l0 -1.40625l3.046875 0l0 -2.078125l1.40625 0q0.59375 0.0625 0.078125 0.4375l0 1.640625l3.265625 0l0 1.40625l-3.265625 0l0 3.1875l3.9375 0l0 1.421875l-9.5 0zm3.109375 -14.03125q0.671875 1.546875 1.78125 2.515625q0.96875 -1.03125 1.703125 -2.515625l-3.484375 0zm-8.09375 8.75q-0.0625 1.859375 -0.734375 4.234375l-1.484375 -0.515625q0.59375 -2.234375 0.734375 -4.453125l1.640625 0.359375q0.21875 0.296875 -0.15625 0.375zm4.3125 -0.8125q0.734375 1.328125 1.03125 3.40625l-1.484375 0.375q-0.296875 -2.078125 -0.890625 -3.40625l1.34375 -0.375zm27.15625 -4.828125l-2.0 0l0 1.40625l3.421875 0l0 4.90625l-1.265625 0l0 -0.59375l-2.0 0q1.328125 2.671875 4.375 4.15625l-0.890625 1.40625q-2.96875 -1.703125 -4.015625 -4.078125q-1.03125 3.046875 -4.453125 4.3125l-0.65625 -1.34375q3.625 -1.34375 4.15625 -4.453125l-2.015625 0l0 0.8125l-1.25 0l0 -5.125l3.328125 0l0 -1.40625l-2.0 0l0 -1.03125q-0.734375 0.890625 -1.859375 1.484375l-0.8125 -1.265625q2.59375 -1.40625 4.234375 -4.671875l1.5625 0.21875q0.21875 0.296875 -0.15625 0.375q1.78125 2.296875 4.828125 3.625l-0.75 1.34375q-0.8125 -0.296875 -1.78125 -1.046875l0 0.96875zm-10.09375 8.6875q-0.296875 -1.40625 -0.59375 -2.375l0.828125 -0.15625q0.4375 0.96875 0.65625 2.234375l-0.890625 0.296875zm-4.890625 1.109375q0.59375 -2.15625 0.59375 -3.5625l0.96875 0.15625q-0.15625 2.375 -0.53125 3.78125l-1.03125 -0.375zm2.0 -0.375q0 -1.546875 -0.140625 -3.03125l0.8125 -0.078125q0.21875 1.40625 0.21875 2.96875l-0.890625 0.140625zm1.640625 0.609375l1.625 0q0.453125 0 0.59375 -0.453125q0.21875 -0.59375 0.21875 -1.40625l0.078125 -2.90625l-5.1875 0l0 -10.015625l6.53125 0l0 1.1875l-2.375 0l0 1.640625l1.78125 0l0 1.1875l-1.78125 0l0 1.78125l1.921875 0l0 1.1875l-1.921875 0l0 1.84375l2.375 0l-0.15625 4.234375q-0.078125 1.71875 -0.375 2.3125q-0.359375 0.8125 -1.25 0.8125l-1.9375 0l-0.140625 -1.40625zm9.34375 -7.4375l0 1.9375l2.15625 0l0 -1.9375l-2.15625 0zm-1.265625 0l-2.078125 0l0 1.9375l2.078125 0l0 -1.9375zm-7.78125 3.71875q0.515625 1.40625 0.515625 2.59375l-0.890625 0.21875q-0.15625 -1.703125 -0.453125 -2.734375l0.828125 -0.078125zm-0.078125 -4.078125l-1.640625 0l0 1.84375l1.640625 0l0 -1.84375zm0 -2.96875l-1.640625 0l0 1.78125l1.640625 0l0 -1.78125zm0 -2.828125l-1.640625 0l0 1.640625l1.640625 0l0 -1.640625zm10.765625 2.375q-1.484375 -1.03125 -2.671875 -2.75q-0.890625 1.640625 -2.078125 2.75l4.75 0zm12.828125 7.203125q-0.890625 0.515625 -1.84375 0.515625q-1.265625 0 -1.9375 -0.671875q-0.890625 -0.890625 -0.890625 -2.0q0 -1.1875 0.890625 -2.078125q0.890625 -0.890625 2.234375 -0.890625q0.890625 0 1.703125 0.21875l0 -1.625l-8.171875 0.515625l-0.296875 -1.5625l8.46875 -0.359375l0 -3.5l1.328125 0q0.828125 0.15625 0.15625 0.59375l0 2.828125l6.3125 -0.453125l0 1.5625l-6.3125 0.296875l0 2.828125q0.296875 1.328125 0.296875 2.96875q-0.078125 3.78125 -4.234375 6.375l-1.40625 -1.03125q3.703125 -2.15625 3.703125 -4.53125zm-1.40625 -3.859375q-0.8125 0 -1.328125 0.515625q-0.453125 0.453125 -0.453125 1.1875q0 0.671875 0.375 1.046875q0.375 0.359375 1.1875 0.359375q0.8125 0 1.328125 -0.515625q0.453125 -0.4375 0.453125 -1.109375q0 -0.671875 -0.453125 -1.109375q-0.359375 -0.375 -1.109375 -0.375zm21.007812 7.34375q1.1875 -0.140625 2.0 -0.96875q0.890625 -0.890625 0.890625 -2.375q0 -1.625 -0.96875 -2.59375q-0.953125 -0.96875 -3.03125 -0.96875q-2.453125 0 -3.796875 0.96875q-1.25 0.890625 -3.265625 3.1875l-1.25 -1.109375q5.34375 -5.34375 8.078125 -8.90625q-2.4375 0.296875 -4.890625 0.515625l-0.515625 -1.703125q3.625 0 6.453125 -0.375l0.671875 -0.296875l0.8125 0.828125q0.8125 0.734375 -0.375 0.953125q-2.21875 2.53125 -4.453125 4.984375q1.5625 -0.375 2.59375 -0.375q2.828125 0 4.15625 1.328125q1.34375 1.34375 1.34375 3.421875q0 2.15625 -1.1875 3.34375q-1.78125 1.78125 -4.53125 1.78125q-2.59375 0 -3.78125 -1.1875q-0.96875 -0.96875 -0.96875 -2.3125q0 -0.890625 0.671875 -1.546875q0.734375 -0.75 1.703125 -0.75q1.34375 0 2.234375 0.890625q1.03125 1.046875 1.40625 3.265625zm-1.484375 0.21875q-0.21875 -1.921875 -0.890625 -2.59375q-0.515625 -0.515625 -1.046875 -0.515625q-0.59375 0 -0.890625 0.296875q-0.359375 0.375 -0.359375 0.8125q0 0.671875 0.59375 1.265625q0.734375 0.734375 1.921875 0.734375q0.296875 0 0.671875 0zm13.058594 -0.21875q-2.296875 0 -3.1875 -0.890625q-0.890625 -0.890625 -0.890625 -2.375q0 -0.8125 0.296875 -1.921875l1.703125 0.21875q-0.375 1.1875 -0.375 1.703125q0 0.671875 0.453125 1.109375q0.515625 0.53125 2.078125 0.53125l8.09375 0l0 1.625l-8.171875 0zm-2.96875 -12.546875l9.65625 0l0 1.640625l-9.65625 0l0 -1.640625zm17.375 -1.921875l1.546875 0q0.828125 0.140625 0.15625 0.59375l0.140625 3.5625q0.078125 1.5625 0.53125 2.515625q2.078125 -0.890625 5.5625 -1.84375l0.734375 1.921875q-7.046875 1.265625 -9.421875 3.640625q-0.8125 0.8125 -0.8125 1.703125q0 0.671875 0.515625 1.1875q0.515625 0.515625 2.15625 0.515625l7.125 0l0 1.640625l-7.203125 0q-2.453125 0 -3.40625 -0.96875q-0.96875 -0.96875 -0.96875 -2.21875q0 -1.640625 1.1875 -2.828125q0.890625 -0.890625 2.96875 -2.078125q-0.453125 -1.109375 -0.515625 -2.453125l-0.296875 -4.890625zm22.328125 13.953125q-3.484375 0 -5.78125 -2.234375l0.96875 -1.25q2.0 1.921875 4.8125 1.84375l4.09375 0l0 1.640625l-4.09375 0zm-10.609375 1.40625q-0.21875 -3.859375 -0.21875 -6.609375q0 -3.328125 0.8125 -7.9375l1.484375 0.375q0.8125 0.140625 0.078125 0.671875q-0.75 4.296875 -0.75 6.890625q0 2.90625 0.296875 6.46875l-1.703125 0.140625zm13.734375 -10.984375q-3.1875 -0.078125 -8.3125 0.453125l0 -1.5625q5.34375 -0.515625 8.3125 -0.453125l0 1.5625zm16.621094 10.015625q-3.40625 -1.921875 -5.484375 -2.4375q-0.078125 1.921875 -0.890625 2.734375q-1.125 1.125 -3.203125 1.125q-1.78125 0 -2.671875 -0.890625q-0.8125 -0.828125 -0.8125 -1.9375q0 -1.109375 0.96875 -2.078125q0.890625 -0.890625 2.96875 -0.890625q1.328125 0 2.15625 0.15625q-0.234375 -4.015625 -0.59375 -9.796875l1.484375 0q0.65625 0.140625 0.140625 0.59375q0 1.1875 0.15625 3.625q2.0 0.078125 5.640625 -0.4375l0 1.5625q-2.609375 0.359375 -5.5 0.4375q0.15625 2.234375 0.15625 4.234375q2.8125 0.671875 6.234375 2.453125l-0.75 1.546875zm-7.046875 -2.8125q-1.109375 -0.21875 -2.0 -0.21875q-1.484375 0 -2.078125 0.59375q-0.53125 0.515625 -0.53125 1.03125q0 0.515625 0.375 0.890625q0.515625 0.515625 1.78125 0.515625q1.1875 0 1.703125 -0.515625q0.75 -0.734375 0.75 -2.296875zm19.371094 2.890625q1.1875 -0.140625 2.0 -0.96875q0.890625 -0.890625 0.890625 -2.375q0 -1.625 -0.96875 -2.59375q-0.953125 -0.96875 -3.03125 -0.96875q-2.453125 0 -3.796875 0.96875q-1.25 0.890625 -3.265625 3.1875l-1.25 -1.109375q5.34375 -5.34375 8.078125 -8.90625q-2.4375 0.296875 -4.890625 0.515625l-0.515625 -1.703125q3.625 0 6.453125 -0.375l0.671875 -0.296875l0.8125 0.828125q0.8125 0.734375 -0.375 0.953125q-2.21875 2.53125 -4.453125 4.984375q1.5625 -0.375 2.59375 -0.375q2.828125 0 4.15625 1.328125q1.34375 1.34375 1.34375 3.421875q0 2.15625 -1.1875 3.34375q-1.78125 1.78125 -4.53125 1.78125q-2.59375 0 -3.78125 -1.1875q-0.96875 -0.96875 -0.96875 -2.3125q0 -0.890625 0.671875 -1.546875q0.734375 -0.75 1.703125 -0.75q1.34375 0 2.234375 0.890625q1.03125 1.046875 1.40625 3.265625zm-1.484375 0.21875q-0.21875 -1.921875 -0.890625 -2.59375q-0.515625 -0.515625 -1.046875 -0.515625q-0.59375 0 -0.890625 0.296875q-0.359375 0.375 -0.359375 0.8125q0 0.671875 0.59375 1.265625q0.734375 0.734375 1.921875 0.734375q0.296875 0 0.671875 0z" fill-rule="nonzero"/><path fill="#000000" d="m58.66806 120.67985q-1.328125 1.9375 -3.78125 3.578125l-1.03125 -1.34375q2.4375 -1.5625 3.625 -3.1875q-0.0625 -0.15625 -1.484375 -1.046875l-0.296875 0.890625l-1.40625 -0.59375q1.046875 -2.890625 1.5625 -6.015625l-1.859375 0l0 -1.40625l2.078125 0q0.296875 -1.78125 0.515625 -3.5625l1.5625 0.21875q0.375 0.078125 -0.078125 0.453125q-0.21875 1.484375 -0.515625 2.890625l1.78125 0l0.21875 -0.375l1.421875 0.890625l-0.234375 0.375q-0.359375 4.53125 -1.328125 6.75q1.03125 0.828125 2.15625 1.78125l-0.96875 1.484375q-1.1875 -1.1875 -1.9375 -1.78125zm7.953125 2.234375q0 1.34375 -0.96875 1.34375l-1.859375 0l-0.375 -1.640625l1.421875 0q0.296875 0 0.296875 -0.296875l0 -5.203125l-3.9375 0l0 -1.40625l3.9375 0l0 -3.109375l0.515625 0.0625l1.703125 -2.21875l-5.640625 0l0 -1.40625l6.609375 0l0.296875 -0.296875l1.265625 1.25q0.4375 0.375 -0.296875 0.453125l-2.96875 2.96875l0 2.296875l3.921875 0l0 1.40625l-3.921875 0l0 5.796875zm-10.25 -5.5q0.671875 0.296875 1.703125 0.96875q0.828125 -2.15625 1.125 -5.421875l-1.859375 0q-0.75 3.640625 -0.96875 4.453125zm23.53125 -8.53125q4.234375 -0.21875 7.71875 -0.890625l0.890625 1.34375q0.140625 0.359375 -0.515625 0.140625l-2.96875 0.296875l0 1.9375l4.453125 0l0 1.1875l-4.453125 0l0 1.703125l2.8125 0l0 9.65625l-1.265625 0l0 -0.53125l-4.15625 0l0 0.890625l-1.25 0l0 -10.015625l2.59375 0l0 -1.703125l-3.9375 0l0 3.921875q0 4.75 -2.0 7.4375l-1.1875 -1.1875q1.703125 -2.234375 1.703125 -6.25l0 -8.453125l1.5625 0.515625zm-5.265625 7.71875q-0.53125 0.671875 -1.34375 1.34375l-0.8125 -1.265625q2.75 -2.59375 4.078125 -5.421875l1.265625 0.96875q0.296875 0.4375 -0.21875 0.375q-0.59375 1.109375 -1.484375 2.296875l0 9.578125l-1.484375 0l0 -7.875zm9.125 -4.890625l0 -1.78125l-3.9375 0.140625l0 1.640625l3.9375 0zm2.8125 5.484375l0 -1.40625l-4.15625 0l0 1.40625l4.15625 0zm0 1.1875l-4.15625 0l0 1.40625l4.15625 0l0 -1.40625zm0 4.15625l0 -1.5625l-4.15625 0l0 1.5625l4.15625 0zm-8.96875 -13.734375q0.21875 0.296875 -0.375 0.296875q-1.9375 2.234375 -3.71875 3.71875l-0.890625 -1.109375q2.078125 -1.640625 3.640625 -4.015625l1.34375 1.109375zm25.59375 15.890625l-1.484375 0l0 -3.78125q-1.78125 2.0 -4.515625 2.8125l-0.59375 -1.484375q3.5625 -0.96875 4.96875 -3.109375l-2.828125 0l0 -3.859375l8.015625 0l0 3.625l1.1875 1.046875q0.078125 0.375 -0.359375 0.21875q-1.265625 0.75 -2.3125 1.109375q1.34375 0.890625 3.265625 1.34375l-0.515625 1.5625q-3.109375 -1.046875 -4.828125 -3.125l0 3.640625zm1.1875 -4.15625q0.59375 -0.296875 2.015625 -1.40625l-3.34375 0q0.59375 0.8125 1.328125 1.40625zm-7.265625 -7.34375l11.203125 0l0 1.1875l-11.203125 0l0 -1.1875zm-0.15625 2.8125l-1.78125 0l0 4.15625l2.078125 -0.734375l0.296875 1.328125l-5.1875 2.15625q-0.078125 0.375 -0.375 0.15625l-0.59375 -1.71875l2.296875 -0.671875l0 -4.671875l-1.78125 0l0 -1.40625l1.78125 0l0 -4.15625l-2.078125 0l0 -1.40625l5.578125 0l0 1.40625l-2.015625 0l0 4.15625l1.78125 0l0 1.40625zm8.546875 0.453125l-5.5 0l0 1.484375l5.5 0l0 -1.484375zm2.0 -4.15625l-9.5 0l0 -4.3125l9.5 0l0 4.3125zm-1.265625 -3.125l-1.484375 0l0 1.9375l1.484375 0l0 -1.9375zm-2.75 0l-1.484375 0l0 1.9375l1.484375 0l0 -1.9375zm-2.734375 0l-1.484375 0l0 1.9375l1.484375 0l0 -1.9375z" fill-rule="nonzero"/></g></svg>